<?xml version="1.0" standalone="no"?><!DOCTYPE svg PUBLIC "-//W3C//DTD SVG 1.1//EN" "http://www.w3.org/Graphics/SVG/1.1/DTD/svg11.dtd" ><svg xmlns="http://www.w3.org/2000/svg"><metadata></metadata><defs><font id="Monotype: Tempus Sans ITC Regular" horiz-adv-x="2048"><font-face font-family="Tempus Sans ITC" font-weight="400" font-stretch="normal" units-per-em="2048" panose-1="4 2 4 4 3 13 7 2 2 2" ascent="1974" descent="-698" x-height="2" bbox="-29 -698 2028 1812" underline-thickness="102" underline-position="-154" unicode-range="U+0030-007a" /><missing-glyph horiz-adv-x="2048" d="M256 0 l0 1536 l1536 0 l0 -1536 l-1536 0 ZM384 128 l1280 0 l0 1280 l-1280 0 l0 -1280 Z" /><glyph glyph-name="zero" unicode="0" d="M684 2 q-119 -18 -168 -18 q-16 0 -50.5 7 q-34.5 7 -68.5 11 q-30 4 -40 10 q-18 10 -35 26 q-40 37 -43 39 q-38 24 -69 59 q-31 37 -55 84 q-24 48 -41 107 q-17 60 -25 129 q-9 71 -9 150 q0 81 12 156 q12 73 35 142 q20 58 34 89 l74 152 q20 43 73 91 q16 14 81 62 q35 26 85 37 l70 19 q129 24 193 24 q22 0 44 -3 l18 -3 l45 2 q73 0 141.5 -31 q68.5 -31 125 -95 q56.5 -64 87.5 -142.5 q31 -78.5 46 -119 q15 -40.5 24.5 -90 q9.5 -49.5 9.5 -103.5 q0 -39 -5.5 -85 q-5.5 -46 -15.5 -100 q-10 -54 -25 -120 q-7 -31 -37 -87 q-30 -56 -48 -81 l-49 -57 q-47 -60 -79.5 -95.5 q-32.5 -35.5 -56.5 -50.5 q-24 -15 -59.5 -41 q-35.5 -26 -53 -30 q-17.5 -4 -59 -23 q-41.5 -19 -49.5 -19 q-3 0 -12 21 q-28 -5 -41 -5 l-4 -18 ZM602 1294 q-20 -4 -56 -9 q-47 -7 -66 -15 q-17 -6 -66 -42 q-39 -28 -59 -56 q-25 -35 -43 -68 q-21 -38 -31 -74 q-14 -56 -29 -99 q-22 -66 -34 -137 q-11 -71 -11 -147 q0 -292 124 -428.5 q124 -136.5 265 -136.5 q30 0 75 19.5 q45 19.5 64 19.5 q2 0 23.5 -4 q21.5 -4 23.5 -4 q47 0 144.5 69 q97.5 69 156 224 q58.5 155 58.5 325 q0 241 -121 402 q-121 161 -291 161 l-127 0 Z" /><glyph glyph-name="one" unicode="1" d="M602 1436 q0 -17 -21.5 -31.5 q-21.5 -14.5 -30.5 -26.5 q-9 -12 -24 -79 q-15 -67 -28 -188.5 q-13 -121.5 -13 -279.5 l4 -253 l-2 -62 l5 -92 q0 -26 -5.5 -66 q-5.5 -40 -5.5 -55 q0 -67 39 -209 q-8 -16 -16 -20 q32 -22 28 -38 q-4 -16 -4 -22 l0 -6 q-43 -8 -71 -8 l-78 4 q-12 0 -39 -4 q-1 6 -6.5 17.5 q-5.5 11.5 -5.5 19.5 q0 4 6 29 q47 179 47 391 l-8 448 q0 67 3 147 l3 68 q0 6 -9.5 33 q-9.5 27 -27.5 27 q-5 0 -27.5 -11.5 q-22.5 -11.5 -42.5 -38.5 l0 -16 q-11 0 -28 -10 q-3 -15 -35 -43 q-32 -28 -45 -82 l-27 8 q-11 0 -36 -13 q-25 -13 -38 -13 l-10 2 q-6 -6 -8.5 -11.5 q-2.5 -5.5 -3.5 -5.5 q-2 0 -13.5 23 q-11.5 23 -11.5 37 q0 10 4 16 q49 24 68 59 q2 10 6 24.5 q4 14.5 4 18.5 l-2 6 q32 13 43 13 q5 0 25 -4 q2 -2 4 -2 q3 0 14 9 q11 9 54.5 33.5 q43.5 24.5 60.5 41.5 q144 178 156 178 q7 0 10 -13 q43 55 133 68 l6 -16 l0 -2 Z" /><glyph glyph-name="two" unicode="2" d="M1044 174 q3 -10 3 -27 q0 -23 -19.5 -69.5 q-19.5 -46.5 -19.5 -59.5 l0 -10 q0 -4 -2 -4 q-5 0 -21 9 q-16 9 -33 12 q-10 8 -16 16 q-6 -13 -24 -9 q-18 4 -35 11.5 q-17 7.5 -80.5 11.5 q-63.5 4 -132.5 4 q-109 0 -230.5 -13 q-121.5 -13 -206.5 -30.5 q-85 -17.5 -106 -29.5 q-8 -2 -23 -2 q-32 0 -50.5 31.5 q-18.5 31.5 -18.5 41.5 q0 14 11 28.5 q11 14.5 53 42.5 q42 28 57 38 q9 16 56 21 q47 5 70 10 q-4 50 -4 55 q0 8 2 10 l7 0 q7 0 7.5 -15 q0.5 -15 8.5 -22 q232 158 393.5 364.5 q161.5 206.5 161.5 379.5 l0 4 l4 67 q0 31 -9.5 62 q-9.5 31 -28 60 q-18.5 29 -44.5 55 q-26 26 -59.5 46.5 q-33.5 20.5 -59.5 30 q-26 9.5 -184 9.5 q-17 0 -37.5 -11.5 q-20.5 -11.5 -30.5 -11.5 l-8 0 q-103 -52 -104 -86 q-15 -11 -19 -16 q-5 4 -24 4 q-18 0 -27 -29 q-4 -2 -10 -2 q-20 0 -35.5 24 q-15.5 24 -15.5 60 q0 46 30.5 62.5 q30.5 16.5 105 29 q74.5 12.5 152 39.5 q77.5 27 175.5 27 q35 0 50 -5.5 q15 -5.5 29 -5.5 l23 0 q91 0 171.5 -85.5 q80.5 -85.5 80.5 -221.5 q0 -193 -154.5 -411 q-154.5 -218 -472.5 -478 q2 -4 2 -10 q0 -5 -2 -13 q-2 -8 -2 -11 q0 -24 25 -18 l428 18 l49 -5 q37 0 50.5 9.5 q13.5 9.5 23.5 9.5 l20 -2 q4 0 10 10 q31 12 47 12 q16 0 43 -12 Z" /><glyph glyph-name="three" unicode="3" d="M934 1325 q0 -27 -109 -98 q-12 -6 -20 -32 q-8 -26 -24 -38 q-35 -24 -64 -57 q-133 -148 -292 -259 q-34 -24 -34 -28 q0 -5 13 -11.5 q13 -6.5 20 -10.5 q32 4 49 4 q54 0 172.5 -45.5 q118.5 -45.5 177 -132 q58.5 -86.5 58.5 -218.5 q0 -116 -121.5 -255.5 q-121.5 -139.5 -356.5 -139.5 l-112 6 q-24 0 -47 -14 q-11 -2 -39 -2 q-55 0 -123 18 q-23 25 -23 80 q0 9 6.5 31 q6.5 22 22.5 22 q3 0 14 -4 l-2 -2 q0 -6 18 -3 q18 3 29 3 q6 0 18 -4 q12 -4 19 -4 q33 0 45 -6 q99 -49 211 -49 q121 0 178 24 q57 24 96.5 107 q39.5 83 39.5 182 q0 142 -94 217.5 q-94 75.5 -273 75.5 q-49 0 -55 -2 l-78 -25 q-26 -25 -51 -37 q0 21 -10 25 l-7 -16 q-34 22 -34 51 q0 25 22 59 q22 34 53 39 q17 40 84 55 q180 108 284.5 216.5 q104.5 108.5 104.5 162.5 q0 64 -127 64 q-144 0 -277.5 -33 q-133.5 -33 -141.5 -33 q-18 0 -31.5 22.5 q-13.5 22.5 -13.5 57.5 q0 71 65 72 q-1 -11 49.5 -12 q50.5 -1 95 -6 q44.5 -5 101.5 -5 q140 0 274 15 q9 34 33 34 q10 0 18 -20 q51 35 86 35 q27 0 65 -16 q38 -16 38 -50 l0 -10 Z" /><glyph glyph-name="four" unicode="4" d="M1090 416 q16 -19 16 -43 q0 -15 -28.5 -61 q-28.5 -46 -43.5 -46 q-10 0 -18 8 q-13 -18 -29 -18 l-14 2 l-10 -2 q-11 0 -26.5 11.5 q-15.5 11.5 -23.5 11.5 l-45 -3 q-14 0 -41 6.5 q-27 6.5 -32 6.5 l-7 -2 l-8 0 q-23 0 -32 -16.5 q-9 -16.5 -9 -84.5 q0 -121 39 -139 l0 -8 q0 -49 -78 -49 l-14 0 q-4 -2 -14 -2 q-8 0 -23.5 3.5 q-15.5 3.5 -23.5 4.5 l0 4 q0 7 12 81 q12 74 16 177 q-49 31 -102 31 q-23 0 -67 -5 q-44 -5 -66 -5 l-10 0 q-15 2 -41 2 l-58 -7 l-22 0 q-60 0 -82 -16 q-31 -6 -45 -6 q-11 0 -40 3 q-29 3 -48 3 l-23 0 q-4 27 -4 53 q0 24 20 63 q20 39 58 81 q194 269 306.5 443.5 q112.5 174.5 270.5 485.5 q4 8 17.5 5 q13.5 -3 27.5 -5 q13 8 14 28.5 q1 20.5 7 27.5 l-2 -8 q0 -7 13.5 -16 q13.5 -9 19.5 -13 q9 12 26 12 q37 -33 37 -51 q0 -4 -4 -12 q-69 -57 -168 -196 l-223 -313 q-123 -174 -195.5 -295.5 q-72.5 -121.5 -72.5 -154.5 q0 -8 8 -15.5 q8 -7.5 19.5 -4 q11.5 3.5 17.5 3.5 q7 0 22 -12 l21 24 q11 -3 21 -13.5 q10 -10.5 13 -10.5 l73 8 q34 3 90.5 3.5 q56.5 0.5 91.5 2.5 q35 2 71 10 q33 47 33 201 q0 61 -9.5 132 q-9.5 71 -9.5 89 q0 58 8 74.5 q8 16.5 33 40.5 q-14 11 -14 28 q53 -30 66 -30 q6 0 8 2 q21 15 43 18 l10 -26 q-45 -264 -45 -408 q0 -56 10 -121 q21 -4 64 -4 l102 4 q60 0 70 23 q11 -1 31.5 -5 q20.5 -4 27.5 -4 q8 0 17 13 Z" /><glyph glyph-name="five" unicode="5" d="M913 1358 q-18 -55 -31 -96 q-13 -41 -46 -41 l-9 0 q-2 10 -24 17 q-22 7 -34.5 14.5 q-12.5 7.5 -23.5 7.5 q-8 0 -27.5 -5 q-19.5 -5 -31.5 -6 q-24 19 -68 19 l-28 -6 q-36 -7 -70 -7 l-129 5 q-38 0 -90 -9 q-45 -90 -45 -198 q0 -4 5 -43.5 q5 -39.5 5 -98.5 l0 -2 q0 -8 16.5 -18 q16.5 -10 34.5 -10 l97 2 q225 0 341.5 -97.5 q116.5 -97.5 116.5 -283.5 q0 -220 -132 -364 q-132 -144 -404 -144 q-71 0 -120.5 11 q-49.5 11 -53.5 11 q-3 0 -15 -4 q-51 39 -51 70 q0 16 20.5 55 q20.5 39 90.5 51 q8 -12 23 -23.5 q15 -11.5 16 -17.5 q8 -2 30.5 -16 q22.5 -14 28.5 -14 l8 2 q14 0 28.5 -12.5 q14.5 -12.5 23.5 -12.5 l6 0 q32 -8 88 -8 q168 0 244.5 104.5 q76.5 104.5 76.5 241.5 q0 168 -94.5 262 q-94.5 94 -263.5 94 q-77 0 -170.5 -32.5 q-93.5 -32.5 -128.5 -32.5 q0 30 17.5 82.5 q17.5 52.5 21.5 75.5 q17 0 28 14 q-12 -6 -16 -6 q-8 0 -8 10 q0 8 8 41 q29 123 29 229 l-6 52 l2 30 q0 16 -3 41.5 q-3 25.5 -3 34.5 q0 28 18 53 q18 25 37 25 q8 0 18.5 -11.5 q10.5 -11.5 16.5 -15.5 q6 -4 80 -14 q74 -10 178 -10 q59 0 170 8 q111 8 116 20 l13 0 l41 2 q27 0 32 -26 Z" /><glyph glyph-name="six" unicode="6" d="M625 854 q7 -7 32 -29 q117 -21 181.5 -111 q64.5 -90 64.5 -231 q0 -47 -15 -97 q-14 -50 -43 -99 q-29 -50 -71 -95 q-43 -48 -97 -87 q-22 -17 -33 -21 l-33 -14 q-35 -25 -78 -43 q-46 -19 -98 -28 q-41 -7 -56 -7 l-66 8 l-6 -2 q-35 0 -97.5 34.5 q-62.5 34.5 -110.5 123 q-48 88.5 -48 196.5 q0 68 33 209.5 q33 141.5 90 231.5 q-10 13 -10 26 q124 214 296 443 q72 97 72 114 q0 7 -2 8 q22 41 54 41 l14 0 q12 0 30 4.5 q18 4.5 25 4.5 l49 -25 l3 0 q0 -5 4 -19.5 q4 -14.5 4 -23.5 q0 -11 -28.5 -33.5 q-28.5 -22.5 -31.5 -58.5 l-22 -8 l0 -17 l-17 2 q-57 0 -115.5 -82.5 q-58.5 -82.5 -58.5 -115.5 q-2 -5 -14.5 -11.5 q-12.5 -6.5 -19.5 -13.5 q-21 -62 -66 -117 q9 -1 13.5 -15 q4.5 -14 11.5 -19 q46 -8 135.5 -12.5 q89.5 -4.5 124.5 -10.5 ZM467 88 q89 0 138.5 17.5 q49.5 17.5 94.5 93.5 q45 76 69 142.5 q24 66.5 24 107.5 q0 41 -17 89.5 q-17 48.5 -30 71.5 q-27 47 -32 58 q-14 29 -49 51.5 q-35 22.5 -96 43.5 q-81 28 -112 28 q-31 0 -54 -15 q-56 -19 -106 -29 q-50 -10 -91.5 -110 q-41.5 -100 -41.5 -221 l5 -60 q2 -27 11 -62.5 q9 -35.5 25 -60 q16 -24.5 29 -40.5 l35 -35 q18 -18 51 -38 q33 -20 64 -26 q31 -6 83 -6 Z" /><glyph glyph-name="seven" unicode="7" d="M66 1341 q23 37 81 37 q21 0 58 -4 q23 -14 45 -14 l45 2 q13 0 44.5 -7 q31.5 -7 53.5 -7 l123 4 l100 -2 q155 0 213.5 26.5 q58.5 26.5 92.5 26.5 q8 0 23.5 -2 q15.5 -2 23.5 -2 l12 2 q20 0 20 -25 q0 -11 -14 -33 q-14 -22 -14 -32 q0 -7 2 -11 q-8 -11 -33 -14 q-33 -43 -83 -136 l-302 -580 q-33 -60 -108 -248 l-64 -154 q-16 -37 -23 -55 q-8 -22 -8 -33 q0 -9 2 -10 q-8 -27 -29.5 -62 q-21.5 -35 -21.5 -49 l0 -4 q-19 -41 -37 -41 q-7 0 -23 9 q-16 9 -49.5 32 q-33.5 23 -33.5 57 q0 41 39 97 q30 30 75 118 q45 88 162 292.5 q117 204.5 267 516.5 q20 59 45.5 119.5 q25.5 60.5 25.5 69.5 q0 22 -14 22 q-2 0 -10 -4 q-102 39 -211 39 q-52 0 -112.5 -10 q-60.5 -10 -76.5 -10 l-41 2 q-36 0 -96 -23 l-57 -22 l-13 0 q-44 0 -63 20.5 q-19 20.5 -19 71.5 l3 30 Z" /><glyph glyph-name="eight" unicode="8" d="M715 711 q113 -27 130.5 -50 q17.5 -23 50.5 -47 q33 -24 57 -61.5 q24 -37.5 24 -120.5 q0 -184 -133 -312 q-133 -128 -332 -128 q-3 0 -20 4 q-17 4 -19 4 q-6 0 -12 -6 q-6 -6 -10 -6 q-164 0 -264.5 77.5 q-100.5 77.5 -100.5 196.5 q0 129 47 199 l0 20 q98 143 213 187 q-55 8 -102.5 34 q-47.5 26 -88.5 70 q-60 63 -66 97 q-7 45 -7 77 q0 191 136 314.5 q136 123.5 327 123.5 l41 -8 q4 0 11 5.5 q7 5.5 13 7.5 l27 2 q46 0 105.5 -19.5 q59.5 -19.5 62.5 -20.5 q36 -10 81.5 -52 q45.5 -42 67 -86.5 q21.5 -44.5 21.5 -92.5 q0 -29 -3.5 -56.5 q-3.5 -27.5 -10 -53.5 q-6.5 -26 -15.5 -49 l-20 -46 l0 -20 q-104 -154 -211 -184 ZM674 774 l8 -2 q34 0 100 75.5 q66 75.5 66 223.5 q0 117 -43 158 q-43 41 -75 52 q-32 11 -42.5 19 q-10.5 8 -51 19.5 q-40.5 11.5 -79.5 11.5 q-113 0 -155 -30 q-6 -5 -9 -5 q-1 0 -3.5 2 q-2.5 2 -4.5 2 q-85 -63 -124.5 -152 q-39.5 -89 -39.5 -122 q0 -157 40 -202.5 q40 -45.5 95.5 -78 q55.5 -32.5 135.5 -32.5 q85 0 125.5 22.5 q40.5 22.5 46.5 22.5 l2 0 q4 2 8 16 ZM674 76 q77 43 127.5 138.5 q50.5 95.5 50.5 182.5 q0 67 -33.5 129 q-33.5 62 -88.5 93.5 q-55 31.5 -91 31.5 l-37 -4 l-47 4 q-46 0 -72 -12 q-3 4 -8 4 q-7 0 -31 -10.5 q-24 -10.5 -41.5 -11.5 q-17.5 -1 -17.5 -17 q-57 0 -109.5 -91.5 q-52.5 -91.5 -52.5 -182.5 q0 -97 24 -149.5 q24 -52.5 84.5 -96 q60.5 -43.5 129.5 -43.5 l26 2 l15 0 q47 0 87.5 7 q40.5 7 47.5 7 q14 21 29 21 q6 0 8 -2 Z" /><glyph glyph-name="nine" unicode="9" d="M631 559 q-21 4 -31 4 q-28 0 -81 -16.5 q-53 -16.5 -81 -16.5 q-16 0 -95.5 16.5 q-79.5 16.5 -132.5 61 q-53 44.5 -87.5 121 q-34.5 76.5 -34.5 166.5 q0 53 10 94 l24 78 q12 51 26 69 q59 73 88 104 q42 46 74 66 l69 34 q34 22 75 34 q43 13 96 14 l93 15 q92 0 206 -89 q114 -89 114 -315 q0 -50 -12 -112 q-13 -77 -46 -156 q-39 -97 -81 -182 q-41 -82 -84 -151 q-42 -68 -84 -123 q-42 -53 -84 -93 l-53 -66 q-14 -16 -41 -37 q-33 -25 -36 -46 q-86 -119 -116 -137 l-9 0 q-15 0 -40 16.5 q-25 16.5 -41 19.5 q-52 18 -52 50 q0 12 14.5 28 q14.5 16 85.5 63 q139 92 286 255 q147 163 214.5 316.5 q67.5 153.5 67.5 324.5 q0 121 -38.5 200 q-38.5 79 -118.5 116.5 q-80 37.5 -152 37.5 q-36 0 -63 -5 q-29 -5 -52 -16 l-57 -24 q-31 -13 -58 -37 q-27 -24 -49 -56 q-22 -33 -37 -73 q-16 -41 -24 -88 q-8 -49 -8 -102 q0 -34 2 -52 q16 -6 16 -18 l0 -14 q0 -26 18.5 -61 q18.5 -35 41 -63 q22.5 -28 48.5 -47.5 q26 -19.5 39 -19.5 l48 0 q8 0 9 -13 q1 -13 9 -13 l37 6 q15 0 46 -3 q31 -3 48 -3 l12 0 q11 12 24 21 q13 9 38 9 l16 4 q21 4 32 8.5 q11 4.5 13 4.5 q5 0 11 -7 q6 -7 6 -16 q0 -22 -33 -43 q0 1 -14 4 q-28 -9 -31 -47 Z" /><glyph glyph-name="A" unicode="a" d="M909 1386 q80 -276 504 -1187 q57 -85 57 -144 q0 -14 -9.5 -25 q-9.5 -11 -70 -29 q-60.5 -18 -79.5 -26 q-15 18 -15 35 q0 15 4 34 l5 15 q0 33 -32.5 136 q-32.5 103 -111.5 262 q-8 4 -16.5 22.5 q-8.5 18.5 -42.5 18.5 q-19 0 -37 -19 q-3 8 -42 15 l-30 8 l-30 0 q-102 0 -141.5 -11.5 q-39.5 -11.5 -41.5 -11.5 q-14 0 -22 15 q-62 -17 -91.5 -13 q-29.5 4 -58.5 4 q-66 0 -122.5 -15.5 q-56.5 -15.5 -73 -16 q-16.5 -0.5 -31.5 -25.5 l-14 10 q-102 -211 -152 -332 q-6 -75 -31.5 -127.5 q-25.5 -52.5 -46.5 -52.5 l-2 0 q-34 14 -139 33 q-16 3 -16 18 q0 33 35 61.5 q35 28.5 40 43.5 q33 62 60 86 q36 43 90.5 141.5 q54.5 98.5 89.5 132.5 q1 44 95.5 189 q94.5 145 163.5 272 q69 127 77 137 q139 199 139 271 l0 4 q23 0 23 10 l0 10 q0 37 49 80 l14 -6 q26 33 41 33 q18 0 18 -27 q0 -16 -6 -29 ZM958 565 q28 8 58 8 q69 13 69 39 q0 2 -116 296 q-116 294 -152 294 q-25 0 -97.5 -139 q-72.5 -139 -162.5 -285.5 q-90 -146.5 -90 -179.5 q0 -23 30 -31 q30 -8 35 -8 l19 2 q17 0 46 -5 q29 -5 40 -5 q24 0 78.5 8 q54.5 8 68.5 8 q14 0 34 -4 q20 -4 26 -4 q14 0 20 14 q25 -8 45 -8 l31 2 q11 0 18 -2 Z" /><glyph glyph-name="B" unicode="b" d="M659 823 q178 -62 255 -146.5 q77 -84.5 77 -230.5 q0 -207 -203 -354 l-22 0 q-18 -19 -36.5 -31 q-18.5 -12 -22.5 -12 q-5 0 -9 8 q0 -5 -23.5 -17 q-23.5 -12 -93 -23 q-69.5 -11 -71.5 -11 q-17 0 -23 2 l-22 -22 l-29 10 q-13 -10 -28 -10 q-15 0 -21 4 q-25 -3 -88 -3.5 q-63 -0.5 -94 -4.5 q6 12 6 38 l-2 35 l13 110 q7 55 9.5 111 q2.5 56 3.5 111 q1 55 1 125 l0 70 l10 397 q0 187 -16.5 273 q-16.5 86 -16.5 106 q0 59 78 59 l20 21 q26 -17 58 -27 q183 -10 284.5 -34 q101.5 -24 153 -90.5 q51.5 -66.5 51.5 -172.5 l0 -12 q-31 -151 -199 -279 ZM514 850 q8 2 23 2 l28 -2 q25 0 93.5 73.5 q68.5 73.5 68.5 157.5 q0 31 -6 59 q-6 28 -18 54.5 q-12 26.5 -29.5 51 q-17.5 24.5 -38 41.5 q-20.5 17 -35.5 21 l-99 28 q-47 14 -63 14 q-56 0 -72 -46.5 q-16 -46.5 -16 -162.5 l10 -215 q0 -67 5.5 -90 q5.5 -23 29.5 -23 l13 2 l24 -4 q23 0 33 18 l22 -2 l21 2 l6 21 ZM516 57 q10 -2 29 -2 q60 0 147 52 q87 52 137 142.5 q50 90.5 50 188.5 q0 118 -100 206.5 q-100 88.5 -273 98.5 q-8 -5 -29 -22 q-26 29 -59 29 q-64 0 -64 -103 l2 -80 q0 -25 -6 -64.5 q-6 -39.5 -6 -53.5 q0 -17 4 -54 q4 -37 4 -57 q0 -26 -4 -74 q-4 -48 -4 -71 q0 -15 5 -41 l5 -25 l-4 -25 q0 -47 62 -47 q19 0 45.5 -9 q26.5 -9 38.5 -9 l20 20 Z" /><glyph glyph-name="C" unicode="c" d="M1192 -61 q0 -25 -35 -25 l-104 15 q-209 22 -280 35 q-112 21 -182 42 q-97 30 -179 77 q-80 45 -140 101 q-56 55 -99 125 q-41 68 -62 143 q-21 76 -21 162 q0 101 60.5 253.5 q60.5 152.5 81 190.5 q20.5 38 103 122 q82.5 84 223.5 152 q50 24 50 36 q26 11 72 11.5 q46 0.5 83.5 15 q37.5 14.5 121.5 14.5 q38 0 68.5 -6.5 q30.5 -6.5 80 -13 q49.5 -6.5 76 -11 q26.5 -4.5 45.5 -13 q19 -8.5 19 -19.5 q0 -14 -21 -76 q-21 -62 -55 -62 q-18 0 -39 13 q-44 49 -122.5 68.5 q-78.5 19.5 -105.5 19.5 q-22 0 -63 -4 l-59 -4 q-12 -1 -21 -3 q-23 -2 -33 -8 q-18 -10 -33 -17 q-15 -7 -28 -10 q-13 -3 -25 -3 l-10 0 l-14 -15 q-29 0 -51 -22 l-21 0 q-262 -269 -262 -561 q0 -170 104 -314.5 q104 -144.5 282.5 -217.5 q178.5 -73 365.5 -73 q34 0 109 13 q75 13 75 28 q45 -1 45 -155 l0 -4 Z" /><glyph glyph-name="D" unicode="d" d="M915 1350 q161 -69 249.5 -209.5 q88.5 -140.5 88.5 -315.5 q0 -66 -17 -133 q-18 -67 -52 -133 q-34 -66 -84 -129 q-50 -63 -113 -119 q-65 -58 -141 -107 q-79 -51 -167 -91 l-70 -46 l-88 -28 q-69 -23 -70 -23 q-7 0 -19 4 q-6 -10 -20 -19 q-14 -9 -17 -9 l-28 0 q-9 -19 -33.5 -30 q-24.5 -11 -36.5 -11 q-9 0 -29.5 3 q-20.5 3 -31.5 3 l-7 0 q-22 0 -22 47 q0 6 6 35 q35 178 35 379 l-4 305 l2 301 q0 116 -6.5 165 q-6.5 49 -6.5 136 q0 33 3 39 q16 6 16 20 l35 0 l6 17 q55 -31 117 -31 q20 0 35 3 l28 5 q6 0 28.5 -4 q22.5 -4 30.5 -4 l24 4 q33 4 67 4 q104 0 175.5 -10.5 q71.5 -10.5 71.5 -17.5 q12 -4 17 -4 q6 0 28 4 ZM381 195 q-4 -24 -4 -35 q0 -74 39 -74 q64 0 145.5 28 q81.5 28 163.5 82 q44 29 76.5 43 q32.5 14 120.5 100 q57 56 99 118.5 q42 62.5 69 132.5 q40 103 40 147 q0 152 -34.5 259.5 q-34.5 107.5 -118 182.5 q-83.5 75 -189.5 100.5 q-106 25.5 -321 25.5 l-8 -21 l-8 0 q-15 0 -27 6 q-66 -65 -66 -571 l9 -496 l-2 -8 q0 -14 16 -20 Z" /><glyph glyph-name="E" unicode="e" d="M408 1368 q10 0 44.5 -4 q34.5 -4 63.5 -4 l229 4 l89 -4 q21 0 75 7 q54 7 88 7 q54 0 54 -28 q0 -2 -7.5 -41 q-7.5 -39 -23 -48.5 q-15.5 -9.5 -45.5 -9.5 q-8 0 -60 4 q-75 45 -327 45 q-44 0 -107 -2.5 q-63 -2.5 -73 -7 q-10 -4.5 -21 -12.5 q-12 -47 -25.5 -171 q-13.5 -124 -13.5 -140 q0 -46 14 -85.5 q14 -39.5 16.5 -66.5 q2.5 -27 47.5 -27 l16 0 q11 0 13 -2 q0 -1 14 -9.5 q14 -8.5 33 -8.5 q19 0 59 4 q40 4 60 4 q5 0 18 -2 q13 -2 20 -2 q29 0 46 14 l54 -5 q17 9 113 16 q2 -6 2 -19 q0 -9 -2 -26.5 q-2 -17.5 -2 -26.5 q0 -15 2 -21 q-14 -45 -77 -45 q-17 0 -57 14.5 q-40 14.5 -83 14.5 l-59 -2 q-22 0 -77 5 q-55 5 -89 5 l-29 0 q-27 -17 -37 -29.5 q-10 -12.5 -21 -75 q-11 -62.5 -11 -132.5 q0 -50 8 -152.5 q8 -102.5 11.5 -156.5 q3.5 -54 6.5 -56.5 q3 -2.5 13.5 -6.5 q10.5 -4 15.5 -9 l59 -2 q50 0 139 7 l87 7 l28 -3 q13 -1 35 -1 q85 0 252 35 q30 16 41 16 q12 0 12 -20 l-10 -39 l2 -35 q0 -36 -17 -44.5 q-17 -8.5 -69 -8.5 q-38 0 -121 6 q-88 16 -174 16 l-250 -4 l-34 0 q-17 10 -21 10 q-7 0 -11.5 -6 q-4.5 -6 -13.5 -3 q-9 3 -14 3 q-14 0 -26 -12 q-26 -3 -41 -19 l-7 0 q-17 0 -28 15 q10 13 10 24 l-2 17 q0 13 6 22 q-4 2 -4 8 q0 5 3 29 q20 168 20 346 l-2 201 l4 141 l0 49 l2 265 q0 97 -6 168 q-17 59 -17 73 q0 10 10 16.5 q10 6.5 86 26.5 l4 13 l17 -9 l14 4 q27 0 58 -18 Z" /><glyph glyph-name="F" unicode="f" d="M422 1356 l332 8 l90 -4 q22 0 76 11 q54 11 86 11 q69 0 69 -63 q0 -13 -5.5 -24 q-5.5 -11 -16 -20 q-10.5 -9 -20.5 -10 l-31 -2 q-21 -1 -37 -1 q-4 0 -23 3 q-156 31 -342 31 q-41 0 -106.5 -2.5 q-65.5 -2.5 -75 -7 q-9.5 -4.5 -21.5 -12.5 q-30 -128 -30 -201 l0 -12 q-13 -77 -13 -127 q0 -36 6 -60 l12 -44 q4 -20 17 -34 q13 -14 33 -14 l24 2 q15 0 20 -9 q5 -9 58 -9 q34 0 65.5 3.5 q31.5 3.5 48 1 q16.5 -2.5 24.5 -2.5 q29 0 47 14 l52 -5 q18 9 113 16 q17 -19 17 -45 q0 -27 -20.5 -51.5 q-20.5 -24.5 -135.5 -24.5 q-48 0 -158 10 q-110 10 -174 10 q-36 -21 -36 -37 q0 -4 2 -6 q-27 -94 -27 -213 l8 -170 q0 -38 -10 -43 q12 -26 22.5 -80.5 q10.5 -54.5 10.5 -83.5 q0 -31 -16 -47 q-16 -16 -27 -16 q-9 0 -19 12 q-9 -12 -35 -22 q-5 2 -30 8 q-41 9 -41 51 q0 10 5 30 l5 17 l-2 33 q0 6 7 23 q7 17 8 30 q10 102 10 234 l-2 155 l8 457 q0 131 -8.5 181.5 q-8.5 50.5 -8.5 70.5 q0 41 15 84 q41 12 84 18 l6 13 l14 -9 l14 4 q21 0 62 -30 Z" /><glyph glyph-name="G" unicode="g" d="M1294 1341 q33 -20 33 -92 q0 -80 -49 -80 q-11 0 -27 7 q-15 18 -47.5 43 q-32.5 25 -60.5 35 l-64 24 l-18 0 q-32 0 -99 13.5 q-67 13.5 -100 13.5 q-49 0 -138.5 -15.5 q-89.5 -15.5 -164.5 -42.5 q-19 -19 -53 -40 l-32 -18 q-16 -10 -32 -28 l-22 0 q-78 -43 -151.5 -203.5 q-73.5 -160.5 -73.5 -291.5 q0 -160 95.5 -292 q95.5 -132 268.5 -206 q10 0 31 -18 q49 -41 293 -78 l22 20 q21 -10 37 -10 q7 0 21 10 q20 0 28 -14 q34 12 56 12 q7 0 38 -4 q3 9 15 20 q12 65 12 115 l0 15 l2 139 q0 66 -14 160 q-17 29 -17 45 q0 41 27 41 l94 -3 q19 0 27 9 q24 0 24 -21 q0 -2 -3 -16 q-29 -122 -29 -287 q0 -66 26 -217 q-18 -20 -20 -23 q-7 -19 -18 -55.5 q-11 -36.5 -40 -38.5 q-13 12 -43 23 q-8 -2 -18 -2 q-7 0 -42 -3 q-35 -3 -40 -6 q-5 -3 -22 -20 l-7 0 q-8 0 -41 -3 q-33 -3 -61 -3 q-49 0 -76 6 l-43 10 q-2 0 -11 -5 q-9 -5 -17 -5 l-5 0 q-15 14 -28 23 q-124 0 -285 97 q-161 97 -250.5 220.5 q-89.5 123.5 -89.5 325.5 q0 125 49.5 264 q49.5 139 75.5 139 l2 0 l0 4 q0 7 3 16 q3 9 3 13 l0 4 q19 2 37 20 l0 23 q143 161 327.5 222 q184.5 61 323.5 61 q10 0 113.5 -11.5 q103.5 -11.5 181.5 -26 q78 -14.5 84 -14.5 l2 0 Z" /><glyph glyph-name="H" unicode="h" d="M1202 1276 q-2 5 -2 20 q0 32 58 60 q58 28 65 28 l8 0 q17 0 29 -16.5 q12 -16.5 12 -40.5 q0 -15 -6 -31 q-23 -8 -23 -59 l5 -186 q0 -399 -12.5 -639.5 q-12.5 -240.5 -12.5 -247.5 q0 -46 33 -76 q-5 -29 -8 -49.5 q-3 -20.5 -9 -22.5 q-31 -5 -69.5 -25 q-38.5 -20 -50.5 -20 q-8 0 -27 17 l-12 71 q43 84 43 220 l0 34 l2 318 q0 8 -13 26 q-13 18 -29.5 21.5 q-16.5 3.5 -39.5 3.5 l-51 -6 l-107 0 q-172 0 -214.5 -3 q-42.5 -3 -62 -10.5 q-19.5 -7.5 -22.5 -7.5 q-16 0 -24 15 q-40 -15 -72 -15 l-80 4 q-156 0 -156 -53 l0 -24 l-2 -80 l2 -88 l-4 -154 q0 -58 14.5 -129 q14.5 -71 14.5 -94 l-2 -39 l-35 -23 q-35 17 -78 17 q-23 0 -33 -2 q-11 12 -18 12 q-2 0 -4 -2 q-4 16 -4 31 q0 3 2 26 q24 194 29 446 l10 498 l6 170 q0 98 -31 211 l-14 15 q12 0 12 12 l0 14 q0 17 12 19 q33 39 68 39 q33 0 96 -29 q-45 -529 -45 -580 q0 -6 2 -30.5 q2 -24.5 2 -26.5 l-2 -10 q0 -26 28 -48 q28 -22 58 -22 l13 0 q15 0 45.5 -5 q30.5 -5 44.5 -5 q8 0 77 9 q69 9 101 9 q89 0 156 -4 q67 -4 69 -4 q13 0 19 15 q41 -11 77 -11 l97 0 q10 11 20 11 q37 5 52.5 28.5 q15.5 23.5 15.5 36.5 l0 57 l2 197 l0 47 q0 154 -25 160 Z" /><glyph glyph-name="I" unicode="i" d="M301 -2 q-96 9 -96 41 q0 10 7 22 q7 12 12 28.5 q5 16.5 13 111.5 q8 95 14.5 289 q6.5 194 6.5 413 l-14 328 l0 2 q0 8 -8.5 23 q-8.5 15 -8.5 22 q0 3 17 39 q17 36 60 48.5 q43 12.5 48 12.5 q10 0 13.5 -11.5 q3.5 -11.5 9.5 -14.5 q20 -17 20 -58 q0 -3 -3 -23 q-25 -167 -25 -370 l2 -76 l-9 -413 q0 -186 25 -270.5 q25 -84.5 25 -118.5 q0 -15 -28.5 -27 q-28.5 -12 -47.5 -12 l-6 0 q-19 0 -27 14 Z" /><glyph glyph-name="J" unicode="j" d="M598 1376 q2 -8 2 -22 q0 -10 -6 -47.5 q-6 -37.5 -6 -67.5 q0 -31 10 -144 q10 -113 10 -206 q0 -205 -55 -396.5 q-55 -191.5 -136 -292 q-81 -100.5 -265 -247.5 q-35 -19 -35 -33 l0 -2 q-32 -22 -47 -22 q-12 0 -18.5 9 q-6.5 9 -14.5 70 q-37 15 -37 62 q0 17 25.5 29.5 q25.5 12.5 121.5 31.5 q80 40 81 40 q40 18 92.5 84.5 q52.5 66.5 83.5 141.5 q31 75 49.5 166.5 q18.5 91.5 26 200 q7.5 108.5 7.5 244.5 q0 131 -24 285 q-19 61 -19 73 q0 9 2 10 q0 27 27 35 l65 19 q38 12 46 12 q3 -3 3.5 -15 q0.5 -12 10.5 -18 Z" /><glyph glyph-name="K" unicode="k" d="M248 1288 q-6 7 -6 10 q0 16 25.5 38.5 q25.5 22.5 66.5 36.5 l37 13 l6 0 q15 0 26 -17 q11 -17 11 -44 q0 -6 -4 -27 q-23 -21 -23 -55 l0 -41 q0 -433 -11 -690 q-11 -257 -11 -264 q0 -23 5 -77.5 q5 -54.5 5 -88.5 q0 -42 -14.5 -69 q-14.5 -27 -34.5 -27 q-5 0 -17 4 q-12 4 -20 4 q-5 0 -15 -3 q-10 -3 -22 -3 q-47 0 -47 53 q0 6 4 31 q29 30 45 151.5 q16 121.5 16 554.5 q0 315 -22 510 ZM1311 174 q35 -13 35 -47 q0 -58 -30.5 -95.5 q-30.5 -37.5 -76.5 -37.5 q-46 0 -83 54.5 q-37 54.5 -183.5 159 q-146.5 104.5 -266 198 q-119.5 93.5 -217.5 131.5 q-75 43 -75 77 q0 18 16 41 q53 40 82 80 q24 9 47 13 q17 14 45.5 36 q28.5 22 31.5 27 q20 34 105.5 146.5 q85.5 112.5 141.5 190.5 l139 200 q41 10 68 10 q23 0 32 -2 q8 -17 8 -37 l0 -8 q0 -20 -14 -43 q-61 -41 -145 -129 q2 -18 -67 -99 l-84 -103 l-66 -94 l-44 -40 q-18 -16 -28 -26 q-10 -10 -12 -13 q-10 -22 -27.5 -49 q-17.5 -27 -17.5 -39 q0 -41 30 -71.5 q30 -30.5 94.5 -76.5 q64.5 -46 110 -80 q45.5 -34 63.5 -46 q18 -12 50.5 -42 q32.5 -30 48.5 -43 q35 -15 50 -29 q15 -14 29.5 -22 q14.5 -8 24.5 -22 q9 -4 24 -9 q15 -5 19 -8 l0 -2 q0 -17 56 -36 q56 -19 67 -19 q7 0 19 4 Z" /><glyph glyph-name="L" unicode="l" d="M995 106 q17 -21 17 -53 q0 -40 -12.5 -59 q-12.5 -19 -26.5 -19 q-13 0 -47.5 6.5 q-34.5 6.5 -34.5 18.5 l-8 -14 l-6 0 q-9 0 -18.5 12.5 q-9.5 12.5 -12.5 15.5 q-71 -12 -158 -12 l-190 0 q-41 0 -117 -4 q-28 -23 -33 -23 l-2 0 q-27 17 -76 17 l-32 -2 q-7 -4 -15 -15 q-18 19 -18 41 q0 18 8 45 q16 28 16 99 l0 26 q17 115 17 316 l-2 368 q0 25 4 68.5 q4 43.5 4 62.5 l4 115 q0 53 -15 113 q-15 60 -18 76 l-14 14 l0 6 q0 68 72 68 q55 0 91 -26.5 q36 -26.5 36 -66.5 q-39 -54 -39 -163 l2 -93 q0 -30 -7.5 -87 q-7.5 -57 -7.5 -85 q0 -17 4.5 -59.5 q4.5 -42.5 4.5 -67.5 l-5 -133 l0 -180 l-10 -207 q0 -72 23 -125 q22 -2 51 -2 q4 -9 100.5 -16.5 q96.5 -7.5 139.5 -7.5 q115 0 174 26 q4 -4 6 -4 q5 0 24.5 7.5 q19.5 7.5 36.5 7.5 l25 -5 l65 0 Z" /><glyph glyph-name="M" unicode="m" d="M1507 1436 q17 -22 17 -35 l0 -39 q0 -99 18.5 -296 q18.5 -197 46.5 -396 q28 -199 55.5 -363.5 q27.5 -164.5 31 -191 q3.5 -26.5 18.5 -47.5 q16 -33 16 -43 q0 -19 -35 -19 l-8 0 l-22 -29 q-22 -6 -55 -10 q-33 -4 -40 -10 q-3 0 -7 12 q-3 11 -6 35 q-3 23 -5 58 l-7 188 q-2 113 -7 148 q-18 115 -34 240 l-22 195 q-20 172 -32.5 239.5 q-12.5 67.5 -36.5 80.5 q-379 -739 -379 -774 q0 -5 4 -25 q-9 -13 -17 -30 q9 -11 9 -23 q-60 -59 -72 -108 q-15 -15 -27 -15 q-7 0 -42.5 30 q-35.5 30 -45.5 83 q-7 4 -13 11 q-6 7 -11 17 q-4 9 -8 22 l-6 28 q-3 15 -5 34 l-50 107 l-96 220 q-107 254 -165 366 q-8 -7 -15 -15.5 q-7 -8.5 -15 -57.5 q-23 -128 -59 -298 l-49 -240 q-26 -132 -34 -254 q-1 -13 -9.5 -40.5 q-8.5 -27.5 -8.5 -43.5 q0 -3 3 -21 q3 -18 3 -38 q0 -74 -25 -96 q-19 -1 -39.5 -16 q-20.5 -15 -27.5 -15 l-3 0 q-16 0 -37 19.5 q-21 19.5 -30 25.5 q74 83 166 664 q13 84 54.5 252.5 q41.5 168.5 41.5 246.5 l-2 88 q0 71 21 110.5 q21 39.5 57 39.5 q50 0 65 -96 q26 -12 27 -33.5 q1 -21.5 10.5 -72.5 q9.5 -51 69.5 -174 l59 -116 l0 -36 q18 -54 90 -208.5 q72 -154.5 100 -195.5 q28 -41 48 -41 q61 0 145 217 q16 41 78 165.5 q62 124.5 92.5 211 q30.5 86.5 70.5 147.5 q16 25 43 109.5 q27 84.5 58 120 q31 35.5 68 35.5 q6 0 22 -4 Z" /><glyph glyph-name="N" unicode="n" d="M1491 1360 l-18 -64 q-24 -79 -33.5 -176.5 q-9.5 -97.5 -11.5 -228 q-2 -130.5 -9.5 -225 q-7.5 -94.5 -7.5 -154.5 l2 -109 l-2 -75 q0 -57 14.5 -132 q14.5 -75 14.5 -100 q0 -58 -18.5 -95.5 q-18.5 -37.5 -43.5 -37.5 q-40 0 -125 111 l0 20 q-222 228 -369 411.5 q-147 183.5 -319 387 q-172 203.5 -176 203.5 q-10 0 -20 -17.5 q-10 -17.5 -23.5 -138.5 q-13.5 -121 -13.5 -291 q0 -187 18 -424 l15 -28 l0 -23 q0 -33 -9 -41 l0 -2 q0 -7 10.5 -36 q10.5 -29 10.5 -56 l0 -12 q-25 -37 -84 -37 q-13 0 -17 16 q-18 -2 -59 -18 q-12 19 -12 61 q0 39 14 133 q10 0 13 9 q3 9 5.5 50.5 q2.5 41.5 6.5 71.5 q-15 18 -15 29 l2 6 q19 12 19 43 l4 119 l-2 160 q0 105 8 147.5 q8 42.5 8 56.5 q0 16 -3 50.5 q-3 34.5 -3 38.5 q0 70 6 113 q6 43 6 104 l-8 34 q4 11 4 48 q0 46 -2 73 q7 10 18 20.5 q11 10.5 16 15.5 q5 5 7.5 5.5 q2.5 0.5 26.5 7.5 q20 -2 69 -77 q86 -132 179 -222 q-2 0 -2 -4 q0 -11 108.5 -129.5 q108.5 -118.5 253.5 -297.5 l90 -112 q47 -57 94 -111.5 q47 -54.5 110.5 -122 q63.5 -67.5 74.5 -71.5 q11 -4 16 -4 q8 0 8 13 l-2 69 l4 129 l-2 174 q0 102 4 271 l5 147 q0 57 -13 72 q-2 6 -2 14 q0 10 3 25.5 q3 15.5 3 21.5 q0 9 -2 13 q2 13 2 39 q0 22 -6 38 q-6 16 -6 41 q0 32 24 51 q24 19 64 19 l21 -2 l30 0 q13 0 27 -8 Z" /><glyph glyph-name="O" unicode="o" d="M1219 1325 q70 5 174 -154.5 q104 -159.5 104 -349.5 q0 -97 -18 -184 q-18 -87 -54 -159 q-77 -159 -109 -206 q-71 -105 -160.5 -168 q-89.5 -63 -183 -92.5 q-93.5 -29.5 -210.5 -29.5 q-278 0 -299 49 q-20 8 -60 21.5 q-40 13.5 -43 17.5 l-26 32 q-35 9 -37 9 q-105 66 -154 180 q-49 114 -49 323 q0 161 109 375 q7 14 12.5 35.5 q5.5 21.5 24 35.5 q18.5 14 20.5 25 q85 94 100.5 115.5 q15.5 21.5 72.5 44.5 q57 23 75 55 q6 10 17.5 7.5 q11.5 -2.5 17.5 -2.5 l8 2 q7 9 14.5 16.5 q7.5 7.5 11 6.5 q3.5 -1 76.5 24 q73 25 84.5 22.5 q11.5 -2.5 86.5 8.5 l65 12 q23 0 55 -7.5 q32 -7.5 43 -9.5 q183 -19 232 -55 ZM1249 330 q121 220 121 403 q0 125 -29 224 q-29 99 -84 168.5 q-55 69.5 -129 111.5 q-74 42 -188.5 56 q-114.5 14 -136.5 14 q-3 0 -18 -10.5 q-15 -10.5 -27 -26.5 q-13 -6 -33 -6 l-33 2 q-37 0 -55 -31 q-2 -2 -6 -2 q-5 0 -8 10 l-15 -8 l0 -14 q-3 0 -7 7 q-4 7 -9 7 l-4 0 q-95 -33 -111 -55 q-24 -9 -37 -11 q-12 -12 -36.5 -44 q-24.5 -32 -40 -50.5 q-15.5 -18.5 -30 -31 q-14.5 -12.5 -14.5 -44.5 q-52 -47 -83 -159 q-31 -112 -31 -232 q0 -110 33 -199 q33 -89 81 -112 l0 -21 q31 -36 66 -67 q35 -31 102 -54.5 q67 -23.5 113.5 -37 q46.5 -13.5 104 -22.5 q57.5 -9 114.5 -9 q34 0 54 2 l71 17 q32 7 51 10 q7 2 53 30 l72 41 q10 5 15 11 q6 8 6 18 l0 8 q5 10 38.5 29 q33.5 19 53.5 30 q20 11 20 27 q0 13 -4 21 Z" /><glyph glyph-name="P" unicode="p" d="M233 438 q0 3 23 54 q6 55 6 141 l-2 119 l4 215 q0 162 -9 233 q-9 71 -9 74 q0 9 3 22.5 q3 13.5 3 18.5 l-2 20 q0 35 45.5 47.5 q45.5 12.5 187.5 12.5 q134 0 233.5 -19.5 q99.5 -19.5 171.5 -60.5 q72 -41 103 -88 q31 -47 44.5 -87.5 q13.5 -40.5 13.5 -138.5 q0 -68 -20.5 -118 q-20.5 -50 -73.5 -133.5 q-53 -83.5 -121.5 -142 q-68.5 -58.5 -147 -94 q-78.5 -35.5 -179.5 -50.5 q-75 -11 -101.5 -33 q-26.5 -22 -26.5 -100 q0 -33 7 -73.5 q7 -40.5 7 -86.5 l-2 -45 q0 -20 4 -45 l4 -25 l0 -14 q0 -16 -6 -20.5 q-6 -4.5 -33.5 -9.5 q-27.5 -5 -53.5 -15 q-26 -10 -30 -10 q-5 0 -22 7 q-17 7 -33 10.5 q-16 3.5 -16 10.5 q0 6 18.5 26.5 q18.5 20.5 18.5 43.5 l0 6 q5 40 14.5 79 q9.5 39 9.5 105 q0 39 -3.5 82.5 q-3.5 43.5 -7 50 q-3.5 6.5 -13 17 q-9.5 10.5 -9.5 12.5 l0 2 ZM387 522 q81 13 152.5 34.5 q71.5 21.5 129.5 48.5 q58 27 85 53 q27 26 60.5 63 q33.5 37 51.5 61 q9 24 28 67.5 q19 43.5 23.5 81.5 q4.5 38 4.5 89 q0 111 -53 161.5 q-53 50.5 -122.5 96 q-69.5 45.5 -209.5 45.5 l-70 0 q-49 0 -68.5 -22.5 q-19.5 -22.5 -19.5 -79.5 l8 -156 l-2 -172 l0 -227 q0 -90 2 -144 Z" /><glyph glyph-name="Q" unicode="q" d="M1534 117 q14 -25 14 -41 q0 -45 -29 -76 q-29 -31 -71 -31 q-29 0 -62 17 q-77 18 -157 18 l-12 0 q-51 0 -165 -11 q-114 -11 -178 -11 l-43 6 l-71 -4 q-279 0 -297 47 q-20 8 -60 21.5 q-40 13.5 -43 17.5 l-26 32 q-79 10 -159.5 130.5 q-80.5 120.5 -80.5 381.5 q0 161 109 375 q7 14 12.5 35.5 q5.5 21.5 24 35.5 q18.5 14 20.5 25 q85 94 100.5 115.5 q15.5 21.5 72.5 44.5 q57 23 75 55 q6 10 17.5 7.5 q11.5 -2.5 17.5 -2.5 l8 2 q7 9 14.5 16.5 q7.5 7.5 11 6.5 q3.5 -1 76.5 24 q73 25 84.5 22.5 q11.5 -2.5 86.5 8.5 l65 12 q23 0 55 -7.5 q32 -7.5 43 -9.5 q183 -19 232 -55 q70 5 174 -154.5 q104 -159.5 104 -349.5 q0 -177 -62.5 -319.5 q-62.5 -142.5 -106.5 -208.5 q-44 -66 -90 -117 q-46 -51 -46 -61 q0 -25 53 -25 q40 0 55 12 q10 -2 29 -2 l47 2 q5 0 26.5 -4 q21.5 -4 43.5 -4 q55 0 88 23 ZM1249 330 q121 220 121 403 q0 125 -29 224 q-29 99 -84 168.5 q-55 69.5 -129 111.5 q-74 42 -188.5 56 q-114.5 14 -136.5 14 q-3 0 -18 -10.5 q-15 -10.5 -27 -26.5 q-13 -6 -33 -6 l-33 2 q-37 0 -55 -31 q-2 -2 -6 -2 q-5 0 -8 10 l-15 -8 l0 -14 q-3 0 -7 7 q-4 7 -9 7 l-4 0 q-95 -33 -111 -55 q-24 -9 -37 -11 q-12 -12 -36.5 -44 q-24.5 -32 -40 -50.5 q-15.5 -18.5 -30 -31 q-14.5 -12.5 -14.5 -44.5 q-52 -47 -83 -159 q-31 -112 -31 -232 q0 -110 33 -199 q33 -89 81 -112 l0 -21 q31 -36 66 -67 q35 -31 102 -54.5 q67 -23.5 113.5 -37 q46.5 -13.5 104 -22.5 q57.5 -9 114.5 -9 q34 0 54 2 l71 17 q32 7 51 10 q7 2 53 30 l72 41 q10 5 15 11 q6 8 6 18 l0 8 q5 10 38.5 29 q33.5 19 53.5 30 q20 11 20 27 q0 13 -4 21 Z" /><glyph glyph-name="R" unicode="r" d="M1239 147 q10 -12 10 -32 q0 -36 -32.5 -70.5 q-32.5 -34.5 -57.5 -34.5 q-18 0 -53 38 l-57 56 q-63 62 -217.5 153 q-154.5 91 -411.5 269 l-12 54 l0 8 q0 15 16 19.5 q16 4.5 47 15.5 q190 62 266 146.5 q76 84.5 76 227.5 q0 171 -99.5 244.5 q-99.5 73.5 -228.5 73.5 l-43 0 q-31 0 -56.5 -18 q-25.5 -18 -25.5 -91 q0 -35 2.5 -57.5 q2.5 -22.5 2.5 -63.5 l-11 -249 q0 -59 1 -93 l3 -73 l-4 -45 q-4 -53 -4 -113 q0 -55 17 -500 q-6 -7 -15.5 -22 q-9.5 -15 -15.5 -15 q-5 0 -14 7 q-64 -19 -68 -19 q-16 0 -31.5 21 q-15.5 21 -15.5 63 l0 10 q47 74 47 297 l-6 367 l6 264 l-2 158 q0 35 -8 92.5 q-8 57.5 -8 81.5 q0 22 7.5 33 q7.5 11 25 14 q17.5 3 65.5 8.5 q48 5.5 102 5.5 q101 0 184 -18.5 q83 -18.5 159.5 -61.5 q76.5 -43 106.5 -91.5 q30 -48.5 45 -97.5 q15 -49 15 -95 q0 -262 -342 -398 q-24 -18 -24 -32 q0 -24 40.5 -55.5 q40.5 -31.5 151.5 -102.5 q29 -14 69 -45 q40 -31 54 -41 q42 -16 75 -41.5 q33 -25.5 53.5 -30.5 q20.5 -5 25.5 -8 q0 -9 14 -20 q37 -19 90 -57 q53 -38 74 -38 q8 0 12 2 Z" /><glyph glyph-name="S" unicode="s" d="M684 1225 q-11 7 -41 35 q-30 28 -70 28 q-160 0 -252 -72 q-92 -72 -92 -190 q0 -128 273 -270 q18 0 41.5 -4 q23.5 -4 79 -57.5 q55.5 -53.5 84.5 -96 q29 -42.5 44 -86 q15 -43.5 15 -86.5 q0 -190 -89 -294 q-89 -104 -317 -187 q-12 4 -22 4 q-16 0 -50.5 -17.5 q-34.5 -17.5 -140.5 -17.5 q-38 0 -53.5 31.5 q-15.5 31.5 -15.5 93.5 q0 17 14 35 l8 0 q26 0 54 -31 q61 -14 75 -14 q11 0 94.5 10.5 q83.5 10.5 158 47.5 q74.5 37 101.5 71 q27 34 53 81.5 q26 47.5 26 108.5 q0 91 -55.5 174.5 q-55.5 83.5 -121.5 95.5 l0 3 q0 17 -45 43 q-176 80 -246.5 158.5 q-70.5 78.5 -70.5 185.5 q0 43 11.5 84 q11.5 41 33.5 78.5 q22 37.5 54.5 69 q32.5 31.5 87.5 63.5 q55 32 77 32 l31 0 q3 2 22 23 q26 2 59 16 q33 14 42 17 q10 -6 14 -17 q28 6 57 6 l21 0 q46 0 71 -12 q25 -12 25 -51 q0 -32 -14.5 -60.5 q-14.5 -28.5 -30.5 -31.5 Z" /><glyph glyph-name="T" unicode="t" d="M1202 1346 q-6 -50 -22 -80 q-21 -4 -23 -4 q-35 0 -83 4 q-48 4 -64 4 q-13 0 -19 -2 q-15 20 -135 20 l-168 -8 l-6 0 q-9 0 -18 -6 q-23 -84 -33 -232 q-10 -148 -10 -235 l6 -113 l-14 -69 q-6 -34 -7.5 -67.5 q-1.5 -33.5 -1.5 -76.5 l12 -215 q0 -38 -10 -43 q9 -1 18 -57 q9 -56 17 -84.5 q8 -28.5 8 -34.5 q0 -14 -53 -33 q2 -3 2 -10 q0 -8 -6 -8 q-6 0 -12 12 q-20 -16 -35 -22 q-6 18 -27 18 q-10 0 -29 -2 q-19 -2 -28 -2 l-8 0 q21 11 15 74 q-3 33 -3 51 q0 1 3 9 q34 89 34 372 l6 457 q0 219 -19 274 q3 6 3 14 q0 11 -4 17.5 q-4 6.5 -22 8.5 l-60 5 q-41 4 -58 4 q-80 0 -94 -26 q-17 10 -33 10 q-14 0 -33.5 -8.5 q-19.5 -8.5 -54.5 -8.5 q-40 0 -67 23 q-3 6 -3 16 q0 13 9.5 39.5 q9.5 26.5 9.5 42.5 l0 4 q14 8 35 8 q13 0 79.5 -10 q66.5 -10 145.5 -10 l150 0 q54 0 100 12 l6 13 q12 -4 14 -9 l17 4 q11 0 27.5 -15 q16.5 -15 25.5 -21 q10 0 45 5 q35 5 66 5 l163 4 l29 -4 l8 0 q17 0 60.5 5 q43.5 5 70.5 5 q66 0 78 -24 Z" /><glyph glyph-name="U" unicode="u" d="M1393 1370 l8 0 q18 0 32 -19.5 q14 -19.5 21 -19.5 l6 0 q17 0 17 -18 q0 -13 -17 -45 q-6 -2 -10 -33 q-5 -38 -60 -246 q-45 -171 -80 -280 q-43 -130 -85 -216 l-60 -108 q-4 -14 -6 -29 q-5 -27 -83 -124 q-63 -80 -138 -142 q-134 -113 -166 -113 q-15 0 -32.5 7 q-17.5 7 -22.5 8 q-34 -21 -47 -21 q-7 0 -11 2 q-49 -6 -71 -6 q-79 0 -166 63.5 q-87 63.5 -120 199.5 q-33 136 -48 358 q-15 222 -24 322.5 q-9 100.5 -21.5 192.5 q-12.5 92 -17 96.5 q-4.5 4.5 -15.5 4.5 q-12 66 -12 74 q0 14 7 28 q7 14 13 21 q6 7 31 13 q25 6 44.5 13.5 q19.5 7.5 26.5 14 q7 6.5 9 6.5 q3 0 15.5 -13.5 q12.5 -13.5 30 -26 q17.5 -12.5 17.5 -46.5 q0 -14 -6 -33.5 q-6 -19.5 -6 -60.5 l2 -68 l-2 -71 q0 -245 14 -399.5 q14 -154.5 26.5 -220 q12.5 -65.5 37.5 -158.5 q25 -93 72.5 -136.5 q47.5 -43.5 57.5 -49 q10 -5.5 46 -5.5 q5 -33 80 -33 q66 0 142 39 q76 39 116 90.5 q40 51.5 73 114 q33 62.5 65 112 q32 49.5 77 145.5 q45 96 83 249 l7 26 q11 26 14 72.5 q3 46.5 21 59.5 q47 190 47 247 q0 33 -5 55 q-5 22 -5 48 q0 42 30.5 45 q30.5 3 47.5 14 Z" /><glyph glyph-name="V" unicode="v" d="M1407 1360 q-234 -369 -483 -926 l-150 -334 l0 -14 q0 -36 -24.5 -73.5 q-24.5 -37.5 -55.5 -39.5 q-19 -18 -86 -18 q-29 0 -36 25 l-45 158 q-114 388 -182 596.5 q-68 208.5 -123 320 q-55 111.5 -62 123.5 l0 22 q-58 82 -58 86 q0 9 24 20 q24 11 36 19 l39 25 q23 3 37 14 l28 -14 q13 -79 48 -191 l70 -205 q35 -99 56 -166 q32 -97 56 -185 q32 -117 58 -178 l44 -108 q20 -48 40 -78 q24 -39 56 -65 q28 16 52 45.5 q24 29.5 49 87.5 l291 647 q74 164 105.5 244 q31.5 80 31.5 107 q0 8 -2 10 q1 65 59 65 l10 0 q12 0 37 13.5 q25 13.5 39 13.5 q41 0 41 -47 Z" /><glyph glyph-name="W" unicode="w" d="M2028 1284 l-35 -57 l-2 0 q-10 0 -27 -39 q-17 -39 -40.5 -116 q-23.5 -77 -53.5 -193 l-83 -355 q-54 -239 -54 -258 l6 -71 q0 -30 -34.5 -117.5 q-34.5 -87.5 -66.5 -87.5 q-12 0 -22 10 q2 12 2 27 q0 12 -51 88.5 q-51 76.5 -102 175 q-51 98.5 -116 205.5 q-65 107 -134 241.5 q-69 134.5 -152 339.5 q-9 19 -23 19 q-11 0 -22 -7 q-11 -7 -21 -21 q-12 -16 -21 -32 q-14 -22 -42 -81 l-300 -649 q-61 -135 -99 -183 q-8 -73 -35.5 -112.5 q-27.5 -39.5 -65.5 -39.5 q-40 0 -48 26 q-8 26 -11 142 q-71 547 -206 1050 q-22 83 -22 93 q0 39 34 61.5 q34 22.5 59 22.5 q57 0 57 -74 l0 -39 q0 -179 79 -522.5 q79 -343.5 78.5 -391.5 q-0.5 -48 51.5 -85 q43 31 43 49 l0 2 q0 16 74 169 l189 387 q114 235 146.5 291.5 q32.5 56.5 32.5 59.5 l-3 26 q16 31 16 40 q12 6 12 16 l0 21 q53 45 61 45 q7 0 21 -10 q-4 -20 -4 -29 q0 -2 4 -14 q3 -2 8 -7 l10 -11 q10 -11 19 -38 q30 -100 69 -200 q39 -99 86 -197 q48 -98 102 -193 q55 -96 116 -187 q63 -91 130 -177 q50 3 154 600 q1 49 20 148 q19 99 30 180.5 q11 81.5 22 95.5 q44 10 80 10 q35 0 79 -10 q-4 -6 -4 -16 q0 -13 9 -21 Z" /><glyph glyph-name="X" unicode="x" d="M1108 1368 q-51 -60 -93 -115 q-39 -51 -69 -95 q-27 -41 -45 -74 l-26 -53 q-39 -50 -64 -86 q-29 -41 -47 -72 q-20 -32 -29 -57 q-10 -25 -10 -44 q0 -34 110 -183 l127 -178 q36 -53 45 -60 q16 -14 29 -28.5 q13 -14.5 23 -28.5 q10 -14 24 -36 q49 -74 101.5 -110.5 q52.5 -36.5 52.5 -71.5 q0 -16 -24 -33.5 q-24 -17.5 -35 -30.5 l0 -20 l-4 -2 q-2 0 -6.5 4 q-4.5 4 -8.5 4 l-2 0 q-17 -14 -37 -14 q-22 0 -57 22 q2 2 2 6 q0 44 -154 262 q-42 45 -94 121 q-52 76 -68.5 91.5 q-16.5 15.5 -39 56.5 q-22.5 41 -42.5 66.5 q-20 25.5 -44 25.5 q-16 0 -32.5 -12 q-16.5 -12 -36.5 -36 l-89 -121 q-53 -70 -88.5 -120.5 q-35.5 -50.5 -67.5 -113.5 l-47 -97 q-20 -41 -20 -57 l0 -6 q-33 -72 -43 -72 l-6 0 q-18 0 -36 -7 q-18 -7 -22 -7 q-34 0 -90 53 q9 13 23 27 q14 14 14 18 q0 3 -10 6 q83 26 125 133 q19 34 56.5 77 q37.5 43 53.5 64 l52 70 q37 49 95 135 l111 168 l-155 208 q-114 154 -182.5 221 q-68.5 67 -125.5 81 q-12 13 -12 21 q0 6 33 60 q33 54 74 63 l8 14 q42 -13 57 -64 q0 -32 77.5 -119 q77.5 -87 183.5 -229.5 q106 -142.5 136 -142.5 q9 0 20 14 l73 107 q63 92 101.5 181 q38.5 89 43.5 161 q17 11 34.5 35.5 q17.5 24.5 28.5 32 q11 7.5 39.5 14 q28.5 6.5 63.5 6.5 q11 0 24 -15.5 q13 -15.5 21 -17.5 Z" /><glyph glyph-name="Y" unicode="y" d="M1145 1354 q2 -10 2 -25 q0 -33 -31 -41 q-48 -54 -130 -194.5 q-82 -140.5 -188.5 -296.5 q-106.5 -156 -125.5 -193.5 q-19 -37.5 -19 -60.5 l0 -27 l-2 -186 q0 -112 11.5 -186 q11.5 -74 11.5 -81 q0 -61 -80 -61 q-32 0 -68 8 q-4 12 -4 13 q0 5 4 20.5 q4 15.5 4 26.5 q0 13 2.5 28 q2.5 15 8.5 39 q6 24 6 49 l1 61 l1 70 q0 107 -10 171 q-10 64 -39.5 116 q-29.5 52 -115 175.5 q-85.5 123.5 -154.5 228 q-69 104.5 -96.5 142.5 q-27.5 38 -43.5 46 q-10 22 -41 35 q-8 19 -8 33 q0 37 29 47 q26 38 54.5 45.5 q28.5 7.5 39.5 11.5 q17 -68 40 -91.5 q23 -23.5 64 -98 q41 -74.5 76 -99.5 q6 -28 14 -28 l7 0 l0 -4 q0 -23 37 -69 q37 -46 72 -110.5 q35 -64.5 84.5 -123 q49.5 -58.5 66.5 -58.5 q2 0 2 2 q10 0 123 149.5 q113 149.5 202 428.5 q20 60 42.5 81.5 q22.5 21.5 84.5 28.5 l6 2 q7 0 26 -10.5 q19 -10.5 34 -13.5 Z" /><glyph glyph-name="Z" unicode="z" d="M1204 109 q17 -17 17 -43 q0 -15 -19 -95 q-38 -8 -88 -8 q-29 0 -41 2 l-26 4 l-9 0 q-10 0 -28 13 q-126 22 -361 22 q-98 0 -360 -8 q-120 -37 -146 -37 q-36 0 -82 14 q3 61 33.5 98.5 q30.5 37.5 30.5 45.5 q0 6 -2 8 q31 16 37 22 q0 8 6 29 q67 56 83.5 68 q16.5 12 16.5 35 l0 6 l2 -2 q5 0 14 7 q9 7 20 20.5 q11 13.5 24 34 q13 20.5 27 47 q14 26.5 26 58.5 q4 9 26.5 30.5 q22.5 21.5 28.5 27.5 q145 240 364 538 q42 55 48 70 q6 15 8 29 q10 20 33.5 51.5 q23.5 31.5 23.5 48.5 q0 9 -2 15 q-162 -2 -241 -12.5 q-79 -10.5 -82 -10.5 q-15 0 -38 5 q-23 5 -30 5 q-11 0 -24 -8 q-51 14 -117 14 l-43 -2 q-5 -8 -19 -8 q-17 0 -34 10 q-9 21 -9 27 q0 41 29 61 q29 20 37 27 q206 -10 248 -10 l133 10 q70 6 84 8 l14 -14 l23 0 q102 0 194 49 l13 -12 q21 32 53.5 26 q32.5 -6 54.5 -6 l4 0 q31 0 31 -30 q0 -22 -80 -100 q-68 -68 -135.5 -156.5 q-67.5 -88.5 -190.5 -266.5 l-221 -322 q-97 -142 -157.5 -237 q-60.5 -95 -91.5 -147 q-31 -52 -31 -56 q0 -16 79 -16 l162 8 l76 -6 q60 0 253 11.5 q193 11.5 286 11.5 q42 0 65 -4 Z" /><glyph glyph-name="a" unicode="a" d="M750 541 q0 -8 -13.5 -22 q-13.5 -14 -18.5 -25 q-5 -11 -8 -58.5 q-3 -47.5 -3 -140.5 l4 -135 q0 -11 -9 -19 q-2 -11 -2 -37 q0 -37 12 -94 l11 -53 l-2 -49 l2 -43 q-72 -72 -107 -72 q-5 0 -19 7 q-14 7 -26 7 l-6 0 q-8 28 -8 50 q0 49 23 94 q11 14 16.5 22 q5.5 8 5.5 60 q0 57 -12 57 q-2 0 -12.5 -4 q-10.5 -4 -22.5 -4 l-8 0 q-12 -8 -15 -21 q-12 1 -131 -45 q-58 -20 -112 -20 q-59 0 -106 15.5 q-47 15.5 -79 46 q-32 30.5 -41.5 45.5 q-9.5 15 -9.5 65 l2 25 l0 8 q0 100 155.5 210 q155.5 110 290.5 133 q36 6 56 12.5 q20 6.5 33.5 21.5 q13.5 15 13.5 69 q0 178 -188 242 q-6 2 -16.5 8 q-10.5 6 -18.5 6 q-97 0 -162 -8 q-36 -41 -80 -41 q-33 0 -33 23 q0 1 14.5 42.5 q14.5 41.5 69.5 41.5 q63 34 230 34 q134 0 208 -104 q74 -104 74 -297 l0 -14 q8 -13 28 -19 q20 -6 20 -18 l0 -2 ZM553 186 q63 85 63 152 q0 41 -20.5 89 q-20.5 48 -81.5 48 q-118 0 -192 -59 l-25 0 q-154 -85 -154 -180 q0 -67 63.5 -112.5 q63.5 -45.5 147.5 -45.5 q22 0 84 19 q62 19 115 71 l0 18 Z" /><glyph glyph-name="b" unicode="b" d="M354 911 q7 14 52.5 22.5 q45.5 8.5 74.5 8.5 l154 -12 q77 -6 142 -32.5 q65 -26.5 133 -77.5 q48 -37 77 -112 q29 -75 29 -149 q0 -232 -230 -381 q-8 -3 -16 -17 q-6 -11 -11 -14 q-22 -14 -37 -22 q-15 -8 -42 -17.5 q-27 -9.5 -60.5 -17.5 q-33.5 -8 -75.5 -16 q-7 -2 -20.5 -10.5 q-13.5 -8.5 -17.5 -8.5 q-4 0 -6 2 q-12 0 -121 -45 l-12 13 q-33 -7 -48 -33 q0 -16 -21.5 -29.5 q-21.5 -13.5 -51.5 -13.5 q-21 0 -30 10 q-9 10 -34 10 q-4 0 -24 -4 l0 4 q0 13 -7.5 29.5 q-7.5 16.5 -7.5 21.5 q0 10 29 33.5 q29 23.5 29 34.5 l0 2 q26 284 26 565 q0 529 -30 756 q-21 30 -21 39 l2 23 q0 8 -3 37 q-3 29 -3 53 q0 35 25.5 39 q25.5 4 42 9 q16.5 5 18.5 5 q6 0 18 -4.5 q12 -4.5 20 -5 q8 -0.5 52 -31.5 q10 -44 10 -59 q0 -11 -2 -13 q-1 -4 -6 -18 q-41 -112 -41 -344 q0 -134 8.5 -182 q8.5 -48 30.5 -48 l6 0 ZM336 819 q-19 -433 -19 -547 q0 -97 29 -130 q29 -33 100 -33 q67 0 163.5 29.5 q96.5 29.5 174.5 104 q78 74.5 104.5 143 q26.5 68.5 26.5 138.5 q0 122 -109 211.5 q-109 89.5 -231 89.5 l-36 0 l-72 4 q-43 0 -78 -26 q-15 24 -37 24 q-11 0 -16 -8 Z" /><glyph glyph-name="c" unicode="c" d="M782 152 q47 -29 47 -78 q0 -64 -34 -64 l-9 0 q-9 0 -64.5 -11 q-55.5 -11 -121.5 -11 l-25 0 l-71 -4 q-39 0 -72 8 q-16 7 -76.5 26 q-60.5 19 -82.5 32.5 q-22 13.5 -55.5 44 q-33.5 30.5 -58.5 65.5 q-25 35 -42.5 75 q-17.5 40 -26 84 q-8.5 44 -8.5 91 q0 140 50 238.5 q50 98.5 163 176.5 q17 9 48 30.5 q31 21.5 49 29 q18 7.5 106 23.5 q88 16 178 16 l37 0 q18 4 41 4 q47 0 47 -41 q0 -7 -3 -21.5 q-3 -14.5 -3 -21.5 l2 -76 q-16 -4 -23 -4 q-24 0 -59 16 q-39 35 -64 35 l-14 0 q-12 0 -55 8 q-43 8 -78 8 q-26 0 -66 -24 q-12 6 -20 6 l-4 0 q-4 0 -13 -8 q-34 -31 -92 -51 q-44 -17 -74 -75 q-30 -58 -59 -87 q-8 -63 -8 -117 q0 -122 27 -175.5 q27 -53.5 76 -97.5 q49 -44 67 -65 l29 0 q10 -28 47 -28 q21 0 61.5 -9.5 q40.5 -9.5 61.5 -9.5 l30 2 l23 0 q51 0 77.5 9 q26.5 9 64.5 16 q38 7 50 35 Z" /><glyph glyph-name="d" unicode="d" d="M926 -125 l-90 -125 l-27 0 q-18 12 -33 12 q-13 28 -26 80 q12 31 12 60 l2 112 q0 65 -21 117 q-6 -4 -19 -5 q-13 -1 -19 -5 q-99 -72 -168 -91.5 q-69 -19.5 -140 -19.5 q-110 0 -192.5 53 q-82.5 53 -107.5 136 q-25 83 -25 131 q0 79 7 109.5 q7 30.5 38 93 q31 62.5 49.5 99 q18.5 36.5 76 86.5 q57.5 50 126.5 93 q61 18 129.5 48.5 q68.5 30.5 93.5 33.5 l6 -14 q44 26 80 26 l2 0 q25 0 25 39 q0 128 -12 270.5 q-12 142.5 -18 158 q-6 15.5 -30 26.5 q-6 19 -6 45 q0 76 51 76 q48 32 70 32 q16 0 38.5 -17 q22.5 -17 26.5 -17.5 q4 -0.5 4 -12.5 q0 -5 -8.5 -34 q-8.5 -29 -9.5 -56 q-20 -14 -20 -51 l2 -51 q0 -156 11 -249 q11 -93 11 -99 q0 -4 -2 -13 q-2 -9 -2 -14 q0 -19 16 -39 l15 6 q4 -14 29 -20 q48 -10 43 -40.5 q-5 -30.5 -7 -49.5 l-8 0 q-11 0 -26.5 -6.5 q-15.5 -6.5 -20.5 -6.5 q-8 0 -16 4 q0 2 -2 2 q-11 0 -11 -196 q0 -120 19 -270 q16 -22 26 -39 q-6 -37 -6 -68 q0 -38 7.5 -101 q7.5 -63 7.5 -87 l-3 -25 q0 -8 9.5 -12 q9.5 -4 9.5 -8 l0 -2 l-4 -13 l37 -92 ZM678 801 q-23 5 -45 7 l-43 5 q-18 0 -42 -6 l-22 -6 l-45 0 q-134 -42 -223.5 -164.5 q-89.5 -122.5 -89.5 -245.5 q0 -128 75.5 -209.5 q75.5 -81.5 198.5 -81.5 q102 0 181.5 30.5 q79.5 30.5 93.5 72.5 q14 42 14 174 q0 140 -20 397 q-29 10 -33 12 l0 15 Z" /><glyph glyph-name="e" unicode="e" d="M856 639 q8 -8 8 -23 q0 -29 -16 -43 q2 -1 2 -6 q0 -16 -43 -16 l-14 0 q-6 0 -12 -7 q-6 -7 -9 -7 q-1 0 -9.5 6 q-8.5 6 -25.5 8 l-12 12 q-22 -6 -43 -6 q-16 0 -44.5 4 q-28.5 4 -41.5 4 q-11 0 -46.5 -6 q-35.5 -6 -62.5 -6 l-98 4 q-79 0 -143 -14 q-9 -5 -26.5 -7.5 q-17.5 -2.5 -19 -16 q-1.5 -13.5 -20.5 -21.5 q-10 -41 -10 -74 q0 -26 15 -99 q15 -73 40 -104 q6 -7 86 -64 q51 -38 110.5 -57.5 q59.5 -19.5 137.5 -19.5 q31 0 77 5 l42 5 l65 0 q10 0 37.5 18 q27.5 18 55.5 21 q12 -28 12 -49 q0 -47 -28.5 -82 q-28.5 -35 -65.5 -35 l-21 4 l-63 -2 l-54 0 q-38 0 -187 32 q-149 32 -220 84 q-71 52 -104 134.5 q-33 82.5 -33 159.5 q0 104 40 211.5 q40 107.5 91 167 q51 59.5 155 123.5 q10 5 30.5 20.5 q20.5 15.5 39.5 15.5 l33 -2 q21 14 75.5 23.5 q54.5 9.5 88.5 9.5 q61 0 133.5 -45 q72.5 -45 87.5 -188 q3 -25 8.5 -40.5 q5.5 -15.5 5.5 -17.5 q0 -6 -4 -14 ZM446 858 q-6 -9 -57 -33 q-25 -18 -48 -41 q-23 -23 -45 -49.5 q-22 -26.5 -38.5 -47.5 q-16.5 -21 -25.5 -31.5 q-9 -10.5 -9 -18.5 q0 -11 14 -16 l13 -5 l74 0 l348 13 q67 0 67 59 q0 62 -24.5 108.5 q-24.5 46.5 -128.5 73.5 q-12 0 -34 2 q-22 2 -32 2 q-9 0 -74 -16 Z" /><glyph glyph-name="f" unicode="f" d="M903 1812 q23 -4 35 -26.5 q12 -22.5 12 -38.5 q0 -27 -32 -37 l0 -4 q0 -32 -44 -39 q-17 21 -51 21 q-8 0 -14 -15 q-24 4 -35 4 q-46 0 -49 -22 l-18 0 q-66 0 -82 -25 q-7 -5 -44 -26 q-37 -21 -60 -41.5 q-23 -20.5 -58.5 -74.5 q-35.5 -54 -67.5 -135.5 q-32 -81.5 -40.5 -136 q-8.5 -54.5 -25 -125.5 q-16.5 -71 -16.5 -83 q0 -90 52 -90 q10 0 16 2 q9 -13 22 -13 q4 0 11.5 2.5 q7.5 2.5 24 0 q16.5 -2.5 32.5 -2.5 q24 0 80.5 12.5 q56.5 12.5 91.5 12.5 q6 0 26 -3.5 q20 -3.5 22 -12 q2 -8.5 7 -37.5 l-2 0 q-11 0 -37 -33 q-4 6 -14 14 q-6 -16 -27 -16 q-14 0 -65.5 5 q-51.5 5 -89.5 5 q-12 0 -32.5 -2 q-20.5 -2 -29.5 -2 q-7 0 -30 4 q-9 -4 -15 -4 q-5 0 -16 4 q0 -8 -8 -8 l-4 2 q-17 0 -17 -223 l0 -111 q0 -99 13.5 -230 q13.5 -131 17.5 -144.5 q4 -13.5 18 -28.5 q-2 -6 -2 -19 q0 -17 10.5 -44.5 q10.5 -27.5 10.5 -41.5 l0 -6 q-31 -20 -66 -45 q-19 -29 -47 -29 l-4 0 q-8 9 -25.5 30 q-17.5 21 -31.5 21 l-8 -2 q-13 28 -13 39 q0 6 17.5 25.5 q17.5 19.5 17.5 62.5 l-2 23 l4 93 q4 104 4 210 q0 105 -8 221.5 q-8 116.5 -8 141.5 l2 40 q0 11 -25 11 q-3 0 -13 -2 q-10 -2 -15 -2 q-9 0 -13 2 q-8 -3 -8 -13 q-6 13 -14 13 l-21 -2 q-2 0 -10 8 l0 2 q0 14 22 28 q22 14 31 23 l19 0 q14 11 14 27 l8 0 q16 0 26 13.5 q10 13.5 20.5 85.5 q10.5 72 13.5 120 q30 160 87.5 270.5 q57.5 110.5 103.5 165.5 q46 55 117 103.5 q71 48.5 97 48.5 l11 0 q32 29 77 32 l27 19 q127 13 137 28 Z" /><glyph glyph-name="g" unicode="g" d="M877 981 q-23 -108 -23 -354 q0 -80 9 -251 q9 -171 9 -302 q0 -250 -49 -399.5 q-49 -149.5 -80 -149.5 l-6 2 q-26 -74 -130 -99.5 q-104 -25.5 -152 -25.5 q-21 0 -60 6 q-39 6 -57 6 q-21 0 -29 -2 q-14 -14 -30 -14 q-12 0 -19 10 q-9 -12 -31 -12 l-18 2 q-3 0 -13.5 -3 q-10.5 -3 -13.5 -3 q-10 0 -24.5 12.5 q-14.5 12.5 -14.5 42.5 q0 17 3.5 42 q3.5 25 3.5 34 l0 22 q0 12 14 29 l8 0 q21 0 66 -27 q107 -63 219 -63 q87 0 137 35 q62 3 66 41 q17 7 59.5 101.5 q42.5 94.5 42.5 289.5 l0 29 q-15 26 -53 26 q-20 0 -49 -6 q-29 -6 -54 -6 q-43 0 -126.5 10.5 q-83.5 10.5 -131 23.5 q-47.5 13 -116 54 q-68.5 41 -97.5 83 q-29 42 -47 98 q-18 56 -18 116 q0 115 62.5 215.5 q62.5 100.5 180.5 173.5 q10 3 18 16 q20 34 155 64 l118 31 l2 0 q13 0 121 41 l14 -17 q7 16 7 68 l0 45 l18 0 q92 0 109 -35 ZM684 143 q3 -12 21 -12 q57 0 57 131 l-17 459 l5 33 q0 69 -95 69 q-71 0 -169.5 -26 q-98.5 -26 -177.5 -100.5 q-79 -74.5 -106.5 -144.5 q-27.5 -70 -27.5 -138 q0 -90 59 -160 q59 -70 145 -110 q86 -40 249 -40 q11 0 23 4 q12 4 34 35 Z" /><glyph glyph-name="h" unicode="h" d="M205 1692 q11 6 29.5 8.5 q18.5 2.5 35.5 5.5 l35 8 q43 0 43 -63 q0 -11 -4 -52 q-12 -54 -12 -133 l4 -149 l-4 -225 q0 -205 12.5 -244 q12.5 -39 42.5 -39 q11 0 54.5 24 q43.5 24 71 38 q27.5 14 61.5 26.5 q34 12.5 65 15.5 l56 6 q27 3 46 3 l17 0 q80 -18 122.5 -65 q42.5 -47 55 -118 q12.5 -71 12.5 -241 q0 -126 -32.5 -264.5 q-32.5 -138.5 -32.5 -147.5 l0 -10 q0 -13 7.5 -35.5 q7.5 -22.5 8.5 -32.5 q-27 -49 -68 -49 l-18 0 q-8 0 -19.5 -3 q-11.5 -3 -15.5 -3 q-5 0 -31 14.5 q-26 14.5 -26 30.5 q0 5 11 27 q43 86 77.5 236 q34.5 150 34.5 284 l0 69 q0 103 -53 165.5 q-53 62.5 -138 62.5 q-41 0 -119 -25 q-78 -25 -83 -47 q-15 0 -34 -10.5 q-19 -10.5 -25.5 -13 q-6.5 -2.5 -9.5 -15.5 q-3 -13 -5 -18 q-12 4 -17 4 q-6 0 -16 -10 q0 -11 -4.5 -25.5 q-4.5 -14.5 -10 -132.5 q-5.5 -118 -5.5 -178 q0 -61 6 -126 l6 -50 l0 -2 q0 -10 9 -40 q9 -30 9 -38 q0 -6 -5 -18 q-5 -12 -5 -21 l0 -2 l2 0 q16 0 16 -27 q0 -2 -8 -10 q-23 -3 -44 -17 q-21 -14 -25 -16 q-22 3 -33 21 q-48 2 -68 11 q-20 9 -20 32 q0 13 3 17.5 q3 4.5 3 6.5 q0 2 -3 9 q-3 7 -3 14 q0 3 8 18 q55 106 55 250 l-6 197 q0 46 2 67 q-39 16 -39 55 q0 44 47 103 q2 107 2 303 q0 500 -53 498 q-6 15 -6 30 q0 56 31 56 Z" /><glyph glyph-name="i" unicode="i" d="M322 1280 q16 -12 52 -29 q36 -17 36 -41 q0 -22 -26 -46.5 q-26 -24.5 -52 -24.5 q-29 0 -61.5 33 q-32.5 33 -32.5 38 q0 18 27.5 44 q27.5 26 53.5 26 l3 0 ZM367 6 q0 -6 -43 -23.5 q-43 -17.5 -54 -17.5 l-6 0 q-10 0 -25.5 -4 q-15.5 -4 -21.5 -4 q-19 0 -34 13.5 q-15 13.5 -15 21.5 q0 21 8 65.5 q8 44.5 25 65.5 q8 63 8 235 l-8 363 l2 63 q0 10 -16.5 37 q-16.5 27 -16.5 66 q0 23 12.5 32.5 q12.5 9.5 57.5 28.5 l57 25 q4 2 12 2 q25 0 25 -78 q0 -44 -15.5 -228.5 q-15.5 -184.5 -15.5 -299.5 q0 -65 3.5 -122.5 q3.5 -57.5 7.5 -87.5 q4 -30 18 -55 q28 -52 28 -94 q4 -2 7 -4 Z" /><glyph glyph-name="j" unicode="j" d="M326 1280 q17 -14 52.5 -29.5 q35.5 -15.5 35.5 -40.5 q0 -23 -26 -48 q-26 -25 -54 -25 q-28 0 -61 34 q-33 34 -33 39 q0 18 28 44 q28 26 56 26 l2 0 ZM350 -549 q-7 -12 -26.5 -27.5 q-19.5 -15.5 -22.5 -15.5 q-6 0 -9 3 q-3 3 -7 3 q-5 0 -15.5 -6 q-10.5 -6 -19.5 -6 q-16 0 -42 7 q-26 7 -26 11 q0 3 5.5 15.5 q5.5 12.5 5.5 23.5 l0 15 l10 125 q30 384 30 657 q0 94 -6 197 l-11 177 q-5 74 -7 112 q-2 38 -8 74.5 q-6 36.5 -6 57.5 q0 29 11 48.5 q11 19.5 52 35.5 l41 15 l25 2 q61 0 61 -35 q0 -3 -6 -16 q-6 -13 -6 -29 l-4 0 q-38 0 -54 -204 q-16 -204 -16 -646 q0 -271 20 -418 l15 -102 l16 -74 Z" /><glyph glyph-name="k" unicode="k" d="M354 1503 q0 -10 -2 -20 q-13 -6 -15 -15 q-2 -9 -12 -48 q-10 -39 -16 -159.5 q-6 -120.5 -6 -175.5 l0 -180 l-2 -436 q0 -97 2.5 -219 q2.5 -122 11 -144 q8.5 -22 15.5 -30 q-3 -68 -35 -68 l-21 2 q-5 0 -20.5 -5 q-15.5 -5 -30.5 -5 q-20 0 -34.5 17.5 q-14.5 17.5 -14.5 45.5 q0 8 6 17 q23 0 23 373 l-6 583 l10 314 l-7 51 q-7 54 -7 90 q0 21 6 43 q73 37 100 37 q13 0 22 -10 q9 -10 27 -45 q6 0 6 -5 l0 -8 ZM860 801 q-6 2 -18 2 q-15 0 -23.5 -3.5 q-8.5 -3.5 -77.5 -70.5 l-136 -130 q-67 -64 -98.5 -99 q-31.5 -35 -31.5 -47 q0 -15 99 -77 l161 -107 q78 -51 129 -75.5 q51 -24.5 98 -28.5 q27 -3 59 -41 q19 -21 19 -42 q0 -23 -22 -37.5 q-22 -14.5 -29 -21.5 q-16 -39 -51 -39 q-9 0 -25 4 l0 2 q0 11 -34 42 q-34 31 -112.5 86 q-78.5 55 -236 153 q-157.5 98 -166.5 99 l-28 3 q0 73 59 127 q39 9 60 45 q2 -2 8 -2 q8 0 21.5 16 q13.5 16 59.5 62 q46 46 76 78.5 q30 32.5 54 65.5 l39 55 q15 22 30 59 q16 0 43 26.5 q27 26.5 50 26.5 l6 0 q6 -6 16 -6 l8 0 q23 -17 23 -49 q0 -45 -29 -76 Z" /><glyph glyph-name="l" unicode="l" d="M362 57 q-9 -31 -15.5 -39 q-6.5 -8 -31.5 -10 q-12 -12 -22 -12 q-8 0 -17 12 q-13 -13 -34 -22 q-78 22 -78 57 l0 2 q16 0 16 29 l0 18 l-2 33 q0 7 12 47 q15 106 15 287 l0 205 l-2 77 l2 66 l-12 231 l8 160 l-8 207 l0 39 q-13 34 -13 67 l4 43 q0 7 -8 19 q0 54 17.5 85.5 q17.5 31.5 43 48.5 q25.5 17 50.5 17 q43 0 75 -84 q-23 -29 -37 -57.5 q-14 -28.5 -14 -83.5 l4 -115 l-4 -286 l2 -391 l-4 -445 l2 -18 q0 -16 -8 -21 q15 -13 19.5 -61.5 q4.5 -48.5 20 -72.5 q15.5 -24 19.5 -32 Z" /><glyph glyph-name="m" unicode="m" d="M1184 887 q31 2 81 13 l44 11 q155 0 227 -80.5 q72 -80.5 72 -252.5 q0 -91 -16.5 -194 q-16.5 -103 -60.5 -227 q-44 -124 -44 -155 q0 -4 2 -10 q-11 -34 -21 -82 l-59 -6 l-23 2 l-20 -2 q-17 0 -43 14 q2 77 27 96 q-7 10 -7 15 l0 6 q13 12 27 12 q133 256 133 451 q0 92 -23.5 168 q-23.5 76 -41.5 105.5 q-18 29.5 -62 44.5 q-44 15 -100 15 q-44 0 -130 -40 l-136 -64 q-52 -23 -52 -59 q0 -5 5 -17 q-16 -3 -25 -12 q-25 -216 -25 -358 l5 -224 q0 -28 -13 -43 q-62 -12 -80 -39 q-24 15 -32 15 q-27 11 -27 76 l0 14 q27 71 43 152.5 q16 81.5 16 218.5 q0 49 -7 107 l-7 46 l0 17 q0 27 -6 53.5 q-6 26.5 -21 52.5 q-15 26 -40 51 q-25 25 -47 37 q-22 12 -62 12 q-24 0 -42 -4 q-20 -4 -36 -14 q-20 -13 -63 -28 q-47 -17 -76 -32 q-33 -18 -55 -39 q-22 -22 -35 -52 q-13 -30 -19 -72 q-6 -41 -6 -101 l12 -282 q0 -92 21 -131 q-15 -46 -43.5 -64 q-28.5 -18 -44.5 -18 l-4 0 q-13 0 -23 12 l-12 -8 q-9 12 -12 29 q10 14 10 47 q0 13 -3 45 q-3 32 -3 49 l0 12 q0 3 7 111.5 q7 108.5 7 298.5 q0 24 -39 45 q-6 15 -6 22 q0 7 6 25 l-12 6 q11 16 28 33.5 q17 17.5 21 23 q4 5.5 4 21.5 q0 18 -16.5 49.5 q-16.5 31.5 -13.5 42 q3 10.5 3 14.5 q0 6 14 28.5 q14 22.5 25 43.5 l19 0 q6 6 16 19.5 q10 13.5 21 13.5 q23 0 44 -23 q21 -23 21 -53 q0 -14 -2 -23 q-16 -26 -16 -47 q0 -45 18 -45 q2 0 31 16 q29 16 74.5 33.5 q45.5 17.5 82 34.5 q36.5 17 40.5 17 l32 -4 q8 0 13 2 q24 18 88 18 q44 0 95 -26.5 q51 -26.5 72 -77.5 q9 -22 25.5 -32.5 q16.5 -10.5 28.5 -10.5 q4 0 4 4 q0 2 -2 4 q8 3 39 25 q31 22 67 28 q14 32 123 53 l21 21 Z" /><glyph glyph-name="n" unicode="n" d="M616 868 q65 11 109 11 q272 0 272 -340 q0 -189 -62 -437 q-28 -107 -28 -143 q0 -8 4 -16 q-12 -62 -73 -62 q-36 0 -65.5 20 q-29.5 20 -29.5 42 q0 33 42 82 q42 49 77 191 q35 142 35 286 q0 295 -242 295 q-95 0 -178.5 -39 q-83.5 -39 -95.5 -86 q-9 -10 -27 -20 q-16 -8 -18.5 -14.5 q-2.5 -6.5 -10.5 -151.5 q-8 -145 -8 -220 l0 -47 q0 -37 12.5 -68 q12.5 -31 12.5 -36 l-2 -35 q0 -33 -11.5 -52.5 q-11.5 -19.5 -29.5 -19.5 l-4 0 l-6 -14 q-12 4 -17 4 q-14 0 -36 -16 l-5 0 q-11 0 -34 26 q-33 0 -33 25 q0 22 14 37 q13 0 30 131.5 q17 131.5 17 333.5 q0 262 -43 299 l-2 18 q0 38 44 51 q18 5 32.5 27 q14.5 22 30.5 22 l2 0 q20 3 34.5 10 q14.5 7 16.5 7 q14 0 14 -39 q0 -30 -12 -68.5 q-12 -38.5 -12 -48.5 q0 -15 10.5 -26 q10.5 -11 26.5 -11 l6 0 q28 27 30 27 l3 0 q96 0 145 39 q9 1 22 3.5 q13 2.5 17 2.5 q24 15 26 20 Z" /><glyph glyph-name="o" unicode="o" d="M129 616 q156 297 561 297 q63 0 112.5 -7 q49.5 -7 91.5 -23 q42 -16 78 -43 q36 -27 69.5 -67 q33.5 -40 66.5 -96 q18 -30 18 -130 q0 -229 -155.5 -390 q-155.5 -161 -384.5 -161 l-8 0 q-47 10 -52 10 q-4 0 -6 -2 q-9 -14 -61 -14 q-71 0 -167.5 40.5 q-96.5 40.5 -158 124.5 q-61.5 84 -61.5 177 q0 36 3.5 71.5 q3.5 35.5 11 68 q7.5 32.5 18.5 61.5 l24 57 l0 26 ZM1010 453 l0 26 q0 166 -104.5 267.5 q-104.5 101.5 -276.5 101.5 q-38 0 -71 -8.5 q-33 -8.5 -38 -11 q-5 -2.5 -17.5 -21 q-12.5 -18.5 -18 -22 q-5.5 -3.5 -15.5 -3.5 l-51 6 q-11 0 -15 -18 q-76 -6 -143 -113 q-67 -107 -67 -223 q0 -25 10 -105.5 q10 -80.5 62 -133 q52 -52.5 126.5 -90 q74.5 -37.5 120.5 -37.5 q12 0 24 3 l9 3 l41 0 q134 0 182 41 q5 4 6 4 q6 0 19 -6 q110 95 163.5 199.5 q53.5 104.5 53.5 140.5 Z" /><glyph glyph-name="p" unicode="p" d="M307 868 q184 66 242 77 q58 11 69 11 q30 0 126.5 -36 q96.5 -36 107.5 -52 q4 -7 39 -53 q63 -63 63 -188 q0 -104 -59 -216 q-59 -112 -141 -161 q-12 -15 -15 -27 q-121 -100 -157 -117 l-27 -12 q-45 -45 -63 -45 q-9 0 -13 2 q-49 -33 -71.5 -47 q-22.5 -14 -61.5 -20.5 q-39 -6.5 -48.5 -12 q-9.5 -5.5 -15.5 -38 q-6 -32.5 -6 -97.5 q0 -122 8 -217.5 q8 -95.5 12.5 -109.5 q4.5 -14 12.5 -25.5 q8 -11.5 8 -15.5 q0 -8 -9.5 -14.5 q-9.5 -6.5 -20.5 -13.5 q-11 -7 -15 -7 q-2 0 -4 4 q-47 -21 -80 -21 q-12 0 -28.5 11 q-16.5 11 -16.5 28 q0 23 13.5 59.5 q13.5 36.5 13.5 53.5 l-2 37 l8 276 q0 64 -5.5 91.5 q-5.5 27.5 -29.5 54.5 l9 47 l-3 8 q0 10 14.5 27.5 q14.5 17.5 14.5 52.5 l-2 55 l0 21 q8 24 8 63 l0 127 q0 19 3 57 q3 38 3 58 q0 101 -6 134.5 q-6 33.5 -24 33.5 q-9 0 -31 -7.5 q-22 -7.5 -35 -7.5 l-8 2 l-23 25 q14 20 67.5 45.5 q53.5 25.5 53.5 52.5 q0 6 -3 22 q-3 16 -3 27 l2 15 q0 8 -16 28 l-4 39 q0 38 16 52 q16 14 45.5 22 q29.5 8 38.5 14 l31 0 q24 0 24 -20 l-8 -32 q-8 -35 -8 -50 l2 -25 l-4 -34 q0 -8 12 -11 ZM313 125 q50 -19 101 -19 q26 0 46.5 4 q20.5 4 71 34.5 q50.5 30.5 121.5 80.5 q26 18 49.5 40 q23.5 22 72.5 105 q22 38 39 103.5 q17 65.5 17 104.5 q0 33 -19 101 q-19 68 -69.5 112.5 q-50.5 44.5 -68.5 44.5 l-6 0 q-26 0 -47 18 l-39 0 l-68 2 q-120 0 -174.5 -39.5 q-54.5 -39.5 -54.5 -144.5 l2 -88 l-6 -428 q0 -14 15 -19 q15 -5 17 -12 Z" /><glyph glyph-name="q" unicode="q" d="M961 956 l0 -8 q0 -11 6 -26.5 q6 -15.5 6 -20.5 q0 -8 -26 -28 q-26 -20 -31.5 -27 q-5.5 -7 -21.5 -147.5 q-16 -140.5 -25 -364.5 q-9 -224 -9 -512 l-2 -154 q0 -80 7 -132 q7 -52 7 -71 q0 -28 -5 -53.5 q-5 -25.5 -14 -41.5 l-18 -30 q-9 -15 -15.5 -24.5 q-6.5 -9.5 -10 -11.5 q-3.5 -2 -8.5 -2 q-10 0 -45 22 l-2 0 q-8 0 -29 16.5 q-21 16.5 -25 25 q-4 8.5 -4 30.5 q0 14 15 62 q45 153 45 292 l-6 250 q0 6 2 17 q2 11 2 16 q0 12 -11 12 l-2 0 q-14 0 -35.5 -18 q-21.5 -18 -38 -25.5 q-16.5 -7.5 -59.5 -7.5 q-43 0 -126.5 10.5 q-83.5 10.5 -131 23.5 q-47.5 13 -116 54 q-68.5 41 -97.5 83 q-29 42 -47 98 q-18 56 -18 116 q0 115 62.5 215.5 q62.5 100.5 180.5 173.5 q10 3 18 16 q20 34 155 64 l118 31 l2 0 q13 0 121 41 l14 -17 q45 22 45 33 q0 18 -6 40.5 q-6 22.5 -6 29.5 q0 18 33 45 q19 2 49.5 15.5 q30.5 13.5 42.5 16.5 q1 -10 14 -19.5 q13 -9.5 13 -19.5 q0 -2 -4 -15.5 q-4 -13.5 -4 -31.5 q-15 -9 -19 -32 q12 -11 35 -11 q17 0 25 2 ZM743 90 q37 504 37 592 q0 77 -28 109 q-28 32 -93 32 q-79 0 -176.5 -27 q-97.5 -27 -175.5 -100.5 q-78 -73.5 -105.5 -143 q-27.5 -69.5 -27.5 -138.5 q0 -90 59 -160 q59 -70 145 -110 q86 -40 249 -40 q11 0 23 4 q12 4 34 35 q9 -39 47 -39 l6 0 l6 -14 Z" /><glyph glyph-name="r" unicode="r" d="M702 774 q0 -10 -14 -33.5 q-14 -23.5 -19 -44 q-5 -20.5 -26 -41.5 l-25 0 q-52 31 -77 31 q-18 0 -59 -21 q-41 -21 -79 -74.5 q-38 -53.5 -49 -84.5 q-5 -34 -32 -72 l0 -33 q-19 -49 -16 -71.5 q3 -22.5 3 -34.5 q0 -13 -2 -21 q-12 -12 -12 -24 q0 -25 10.5 -88 q10.5 -63 34.5 -96 l0 -9 q0 -45 -37 -45 l-20 -20 q-25 -2 -54 -2 q-37 0 -65 10 l0 4 q0 27 16.5 79 q16.5 52 16.5 79 l6 235 q0 274 -30 483 q-3 22 -3 25 q0 38 36.5 58 q36.5 20 63.5 20 q24 0 45 -12 q2 -4 7.5 -14 q5.5 -10 5.5 -13 l0 -12 q0 -15 -17.5 -67 q-17.5 -52 -17.5 -132 l2 -123 l0 -18 q0 -15 27 -21 q42 93 100.5 146.5 q58.5 53.5 144.5 77.5 q86 24 109 24 q26 -18 26 -33 l0 -12 Z" /><glyph glyph-name="s" unicode="s" d="M543 512 q78 -70 78 -168 q0 -127 -78.5 -230.5 q-78.5 -103.5 -202.5 -123.5 q-27 0 -76 -4 q-37 -15 -78 -15 q-54 0 -85 22 q-31 22 -31 87 q0 19 2 29 l8 0 q20 0 38 -10.5 q18 -10.5 23 -10.5 l6 2 q34 -33 115 -33 q77 0 140 27.5 q63 27.5 93.5 91.5 q30.5 64 30.5 115 q0 74 -56.5 123 q-56.5 49 -254.5 110 q-30 5 -39 13 l-46 40 q-37 31 -48 62 l-10 31 q0 158 91.5 224.5 q91.5 66.5 315.5 66.5 l56 -3 q5 0 20 5 q16 -16 16 -45 q0 -33 -11 -62.5 q-11 -29.5 -23 -34.5 q-9 18 -21 27 l-2 0 q-3 0 -9 -3.5 q-6 -3.5 -9 -4.5 q-47 53 -117 53 q-135 0 -178 -51.5 q-43 -51.5 -43 -114.5 q0 -91 145 -125 q106 -26 173 -53.5 q67 -27.5 67 -36.5 Z" /><glyph glyph-name="t" unicode="t" d="M586 881 q1 -6 12 -10.5 q11 -4.5 12 -4.5 l11 0 q33 0 57 -15 q24 -15 24 -34 q0 -20 -28 -39 l-12 13 q-14 -25 -48 -31 l-6 12 l-12 -4 q-44 20 -90 20 l-94 -4 q-20 0 -60 4 q-26 -194 -26 -305 q0 -41 4.5 -95.5 q4.5 -54.5 17.5 -89 q13 -34.5 26 -63.5 q13 -29 44 -57.5 q31 -28.5 57.5 -40.5 q26.5 -12 46 -33.5 q19.5 -21.5 101.5 -21.5 l20 0 q19 -15 19 -25 q0 -11 -14.5 -34 q-14.5 -23 -23 -39 q-8.5 -16 -28.5 -35 l-4 0 q-5 0 -8 6 q-35 0 -62 8 q0 -2 -2 -2 q-2 0 -9.5 5.5 q-7.5 5.5 -14.5 8.5 q-7 14 -29 25 q-45 16 -83.5 47 q-38.5 31 -79.5 88 q-41 57 -51.5 105 q-10.5 48 -17 115.5 q-6.5 67.5 -6.5 144.5 q0 130 19 286 l-21 7 l-6 -13 l-14 0 l-4 13 q-232 9 -232 45 q0 13 14.5 23.5 q14.5 10.5 84.5 10.5 l39 0 l42 10 q23 5 45 18 q22 13 38.5 32 q16.5 19 30.5 133 q9 70 9 149 l0 41 q0 19 14 54 q14 35 34.5 55 q20.5 20 29.5 20 q20 0 42 -7.5 q22 -7.5 25 -10.5 q3 -3 7 -15.5 q4 -12.5 10 -19.5 l0 -4 q0 -4 -7.5 -6 q-7.5 -2 -9.5 -4 q-2 -2 -3.5 -4 q-1.5 -2 -14.5 -54 q-13 -52 -22 -104 q-9 -52 -14 -102 q-5 -50 -5 -99 q0 -70 6 -79 q6 -9 17 -9 q5 0 25.5 6.5 q20.5 6.5 37.5 6.5 q9 0 15 -2 l12 -25 q6 -2 16 -2 q11 0 42.5 13.5 q31.5 13.5 54.5 17.5 Z" /><glyph glyph-name="u" unicode="u" d="M848 915 q17 13 49 20 l61 13 l7 0 q20 0 20 -51 l-33 -108 q-16 -54 -23 -103 q-7 -49 -7 -94 q0 -46 7 -97.5 q7 -51.5 36 -88.5 q2 -5 2 -13 q0 -10 -16.5 -34.5 q-16.5 -24.5 -16.5 -65.5 q0 -22 8.5 -71.5 q8.5 -49.5 9 -61 q0.5 -11.5 15 -22 q14.5 -10.5 14.5 -15.5 q0 -8 -16 -14 q-4 -49 -4 -60 q0 -37 10 -41 q-69 -28 -103 -28 q-41 0 -41 34 q0 10 7 29 q-3 6 -3 16 q0 19 5.5 30 q5.5 11 5.5 22 q0 20 -6 56 q-6 36 -37 36 q-23 0 -86 -57 q-95 -84 -168 -121 q-31 -11 -41 -21 q-142 -22 -148 -22 q-25 0 -64.5 28.5 q-39.5 28.5 -64 56.5 q-24.5 28 -43 86.5 q-18.5 58.5 -18.5 131.5 q0 32 25 221 q25 189 39 270.5 q14 81.5 14 85.5 q0 8 -7 25 l-8 16 l0 4 q0 7 10 10 q10 3 38.5 17 q28.5 14 44.5 14 q7 0 28.5 -7 q21.5 -7 36.5 -7 l6 0 q19 -15 25 -31 l-21 -24 q-57 -52 -73 -154 l-33 -215 q-19 -112 -19 -160 q0 -140 54.5 -205 q54.5 -65 107.5 -65 l17 2 l30 -2 q15 0 59 22.5 q44 22.5 129.5 81 q85.5 58.5 104 86 q18.5 27.5 32.5 70 q14 42.5 21 97.5 q7 55 7 122 q0 168 -7.5 226.5 q-7.5 58.5 -25.5 70.5 q-13 10 -13 53 q16 6 22.5 10.5 q6.5 4.5 12.5 4.5 q11 0 25 -9 Z" /><glyph glyph-name="v" unicode="v" d="M946 924 l2 -23 q0 -21 -8 -34.5 q-8 -13.5 -39 -28.5 q-87 -125 -183.5 -330 q-96.5 -205 -145.5 -382 q-12 -45 -34 -81 q-22 -36 -22 -47 q0 -8 4 -12 q-26 -12 -26 -33 q-20 8 -25 8 q-15 0 -47 -8 q-1 12 -16 27 q-15 15 -16 25 q-1 10 -16.5 38.5 q-15.5 28.5 -23.5 46.5 l12 6 q-239 615 -286 658 q-35 41 -35 63 q0 28 29 67.5 q29 39.5 55 39.5 q8 0 20 -9 q12 -9 32.5 -20.5 q20.5 -11.5 31.5 -20.5 l2 3 q8 0 14 -103 q5 -65 62 -208 q57 -143 72.5 -158 q15.5 -15 17.5 -23 q23 -95 64.5 -148 q41.5 -53 50.5 -53 q19 0 22 39 l2 0 q10 0 24.5 29.5 q14.5 29.5 42.5 99.5 l50 129 q54 136 71 158.5 q17 22.5 18 29 q1 6.5 5 19.5 q4 13 4 19 q20 31 33 106 l18 18 l0 3 l6 45 l-2 14 q0 68 60 68 q55 0 100 -37 Z" /><glyph glyph-name="w" unicode="w" d="M1292 938 l13 -12 q24 -8 24 -37 q0 -39 -15 -72.5 q-15 -33.5 -63 -165 q-48 -131.5 -85 -271.5 q-37 -140 -48.5 -210 q-11.5 -70 -29.5 -117.5 q-18 -47.5 -64 -85.5 l-23 0 q-4 0 -10 -8 l-6 -2 q-25 0 -41 51 q-1 52 -98 263.5 q-97 211.5 -144 318.5 q-24 88 -61 88 q-7 0 -18 -4 q-59 -145 -123 -329 l-99 -279 q7 -3 7 -9 q0 -2 -6.5 -7.5 q-6.5 -5.5 -6.5 -12.5 q0 -9 6 -25 q-5 2 -10.5 6.5 q-5.5 4.5 -7.5 4.5 q-52 -48 -100 -48 q-17 0 -23 20.5 q-6 20.5 -12 82.5 q-33 305 -102 490 q-5 12 -11.5 49 q-6.5 37 -12.5 61 q-6 24 -18 51.5 q-12 27.5 -29.5 54 q-17.5 26.5 -17.5 47.5 q0 72 156 78 q12 -34 12 -63 q0 -12 -2 -37.5 q-2 -25.5 -2 -40.5 q0 -72 46 -245 l87 -333 q121 270 183.5 429.5 q62.5 159.5 62.5 181.5 l-2 26 q0 22 20 54 q20 32 52 32 q22 0 32.5 -14 q10.5 -14 28.5 -59 q4 -11 5.5 -36 q1.5 -25 13.5 -56.5 q12 -31.5 37.5 -83 q25.5 -51.5 53 -122.5 q27.5 -71 49.5 -121 q22 -50 62 -122.5 q40 -72.5 56 -85 q16 -12.5 34 -23.5 q74 199 111 349.5 q37 150.5 37 224.5 q0 47 -23 78 q25 14 28.5 41.5 q3.5 27.5 12.5 27.5 l9 0 q11 0 35 13 q24 13 40 14 Z" /><glyph glyph-name="x" unicode="x" d="M856 860 l-6 2 q-9 0 -59.5 -35.5 q-50.5 -35.5 -112 -114 q-61.5 -78.5 -86.5 -108.5 q-55 -46 -55 -74 q0 -16 99 -139.5 q99 -123.5 244 -226.5 q38 -26 38 -37 q0 -5 -46.5 -52.5 q-46.5 -47.5 -83.5 -47.5 q-18 0 -32 7.5 q-14 7.5 -23.5 23.5 q-9.5 16 -16.5 41 q-1 3 -58 73 l-53 66 q-151 188 -171 188 q-20 0 -94 -101.5 q-74 -101.5 -137 -258.5 q-47 -74 -113 -74 q-16 0 -46 12.5 q-30 12.5 -30 28.5 q0 34 52 41 q6 0 102 129.5 q96 129.5 235 285.5 q-188 314 -272 314 l-6 0 q-10 17 -10 28 q0 25 38 66 q38 41 72 41 q28 0 54 -41 q65 -150 213 -313 q128 117 176 262 q28 65 53 65 l27 -4 q28 0 50.5 10.5 q22.5 10.5 28.5 10.5 q31 0 31 -45 q0 -15 -2 -23 Z" /><glyph glyph-name="y" unicode="y" d="M881 899 q12 10 28 10 q15 0 55 -10 q40 -10 40 -29 q0 -27 -35 -51 q-13 0 -105 -167 l-165 -299 q-73 -131 -83 -227 q-9 -76 -45 -101 l-6 -25 q-16 -3 -26 -20 q-145 -334 -176.5 -413 q-31.5 -79 -34 -122 q-2.5 -43 -43.5 -43 l-11 0 q-34 12 -90 12 l-6 -2 q-16 0 -16 17 q0 5 6 8 q0 8 74 106 q-9 3 -9 11 q0 13 47 83 q117 177 193 343 q-6 9 -6 20 q-6 4 -18 4 l-5 0 q-21 0 -28.5 52 q-7.5 52 -12.5 61 q-45 77 -92.5 189.5 q-47.5 112.5 -98.5 214 q-51 101.5 -72.5 154.5 q-21.5 53 -54 91.5 q-32.5 38.5 -32.5 64.5 l0 11 q-4 -2 -12 -2 q-14 0 -14 6 q0 6 32 46.5 q32 40.5 72 63.5 q30 -12 46 -20 q16 -8 37 -97 l22 -79 l0 -33 q38 -73 99 -206 l31 -67 q16 -34 30 -62.5 q14 -28.5 29.5 -54 q15.5 -25.5 31.5 -47.5 q25 -34 27 -38 q7 -15 16.5 -27.5 q9.5 -12.5 20.5 -23 q11 -10.5 24 -19.5 l78 177 q99 224 128.5 273.5 q29.5 49.5 44.5 92.5 q15 43 26.5 94.5 q11.5 51.5 19 66.5 q7.5 15 26.5 15 l13 -2 Z" /><glyph glyph-name="z" unicode="z" d="M850 68 q16 -10 16 -37 q0 -21 -14 -35 q2 -8 2 -23 q0 -34 -29 -34 q-27 0 -82 28 q-331 51 -497 51 q-13 0 -13 -14 q-10 0 -22 6 l-4 -14 q-34 18 -53 18 l-28 -3 q-16 -1 -28 -12 q-12 -11 -20 -11 q-6 0 -21.5 16.5 q-15.5 16.5 -15.5 46.5 q0 26 12 39 l60 66 q233 257 487 626 l0 6 q0 13 5 28.5 q5 15.5 5 21.5 q0 8 -22 8 l-41 0 l-199 10 q-129 0 -164 -37 q-2 -2 -4 -2 q-3 0 -8.5 5 q-5.5 5 -9.5 5 l-6 -2 q-46 -26 -54 -26 q-7 0 -12.5 24 q-5.5 24 -5.5 43 q0 85 63 111 q8 -15 37 -18 q29 -3 43 -9 q49 -20 140 -20 l71 0 l156 -6 q84 0 209 26 q16 -19 16 -35 l-2 -10 q-18 2 -40 -33 q-22 -35 -34 -53 q-12 -18 -26 -33.5 q-14 -15.5 -52 -70.5 l-67 -96 q-92 -130 -88 -150 q-18 0 -27 -14 q-89 -157 -168 -217 q-4 -21 -8 -31 q-51 -21 -51 -60 q0 -18 8 -34 l15 0 l6 -15 l32 2 q11 0 17 -5 q6 -5 8 -5 q7 0 10 8 q16 -5 27 -16 l51 0 q135 -23 277 -23 l73 2 l43 0 q20 0 27 7 Z" /></font>
</defs>
</svg>
