<?xml version="1.0" standalone="no"?><!DOCTYPE svg PUBLIC "-//W3C//DTD SVG 1.1//EN" "http://www.w3.org/Graphics/SVG/1.1/DTD/svg11.dtd" ><svg xmlns="http://www.w3.org/2000/svg"><metadata></metadata><defs><font id="Kalinga Regular" horiz-adv-x="2039"><font-face font-family="Kalinga" font-weight="400" font-stretch="normal" units-per-em="2048" panose-1="2 0 6 0 0 0 0 0 0 0" ascent="2040" descent="-1000" x-height="0" bbox="-17 -470 2029 1500" underline-thickness="20" underline-position="-300" unicode-range="U+0030-007a" /><missing-glyph horiz-adv-x="1032" d="M129 903 l774 0 l0 -903 l-774 0 l0 903 ZM838 64 l0 774 l-645 0 l0 -774 l645 0 Z" /><glyph glyph-name="zero" unicode="0" d="M1059 728 q0 -211 -38.5 -354 q-38.5 -143 -105 -231 q-66.5 -88 -156 -126 q-89.5 -38 -190.5 -38 q-103 0 -192 38 q-89 38 -154.5 126 q-65.5 88 -102.5 231 q-37 143 -37 354 q0 219 37 363.5 q37 144.5 103 229.5 q66 85 156.5 120 q90.5 35 195.5 35 q101 0 189.5 -35 q88.5 -35 153.5 -120 q65 -85 103 -229.5 q38 -144.5 38 -363.5 ZM916 728 q0 181 -23.5 303 q-23.5 122 -68 195 q-44.5 73 -107.5 103.5 q-63 30.5 -144 30.5 q-83 0 -147.5 -31 q-64.5 -31 -109 -104 q-44.5 -73 -68.5 -194.5 q-24 -121.5 -24 -302.5 q0 -176 24 -296.5 q24 -120.5 68.5 -195.5 q44.5 -75 108.5 -107 q64 -32 145 -32 q78 0 141.5 33 q63.5 33 109.5 107.5 q46 74.5 70.5 194.5 q24.5 120 24.5 296 Z" /><glyph glyph-name="one" unicode="1" d="M157 0 l0 116 l390 0 l0 1201 l-348 -222 l0 123 l363 236 l126 0 l0 -1338 l332 0 l0 -116 l-863 0 Z" /><glyph glyph-name="two" unicode="2" d="M101 0 l0 101 q43 103 117.5 192 q74.5 89 159.5 169 q85 80 172 154 q86 74 155.5 147.5 q69.5 73.5 114 151 q44.5 77.5 44.5 162.5 q0 72 -22 125.5 q-22 53.5 -62 88.5 q-40 35 -95 52 q-55 17 -123 17 q-121 0 -203 -67.5 q-82 -67.5 -97 -197.5 l-143 14 q9 77 40.5 143 q31.5 66 86.5 116 q55 50 135 79 q80 29 184 29 q102 0 184.5 -26 q82.5 -26 140.5 -75 q58 -49 89 -122 q31 -73 31 -168 q0 -78 -26 -147 q-26 -69 -69.5 -132 q-43.5 -63 -101 -121 q-57.5 -58 -120 -113.5 q-62.5 -55.5 -125.5 -109.5 q-64 -54 -120.5 -109 q-56.5 -55 -101.5 -111 q-45 -56 -71 -117 l756 0 l0 -125 l-930 0 Z" /><glyph glyph-name="three" unicode="3" d="M1046 401 q0 -202 -123 -312 q-123 -110 -348 -110 q-130 0 -219 32.5 q-89 32.5 -146.5 86.5 q-57.5 54 -86 123 q-28.5 69 -37.5 143 l146 15 q9 -63 32.5 -114.5 q23.5 -51.5 65.5 -89 q42 -37.5 102.5 -58 q60.5 -20.5 142.5 -20.5 q75 0 135 19 q60 19 102.5 58 q42.5 39 66 95.5 q23.5 56.5 23.5 131.5 q0 88 -38 141.5 q-38 53.5 -95 82.5 q-57 29 -123 38.5 q-66 9.5 -122 9.5 l-103 0 l0 129 l99 0 q55 0 116 12.5 q61 12.5 111 44 q50 31.5 83 85.5 q33 54 33 137 q0 129 -75.5 204 q-75.5 75 -225.5 75 q-134 0 -216 -70 q-82 -70 -96 -195 l-140 12 q11 94 50.5 163 q39.5 69 99.5 115 q60 46 138 68.5 q78 22.5 167 22.5 q116 0 199.5 -30.5 q83.5 -30.5 137.5 -82 q54 -51.5 79 -121 q25 -69.5 25 -149.5 q0 -65 -17.5 -121.5 q-17.5 -56.5 -54 -101 q-36.5 -44.5 -93.5 -77 q-57 -32.5 -137 -47.5 l0 -4 q88 -9 152 -39.5 q64 -30.5 106.5 -76.5 q42.5 -46 63 -103 q20.5 -57 20.5 -122 Z" /><glyph glyph-name="four" unicode="4" d="M881 347 l0 -347 l-139 0 l0 347 l-685 0 l0 107 l677 1000 l147 0 l0 -993 l195 0 l0 -114 l-195 0 ZM742 1277 l-556 -816 l556 0 l0 816 Z" /><glyph glyph-name="five" unicode="5" d="M1050 470 q0 -110 -31.5 -200.5 q-31.5 -90.5 -93.5 -155 q-62 -64.5 -153.5 -100 q-91.5 -35.5 -212.5 -35.5 q-111 0 -192.5 26 q-81.5 26 -137.5 70.5 q-56 44.5 -89.5 104.5 q-33.5 60 -49.5 128 l142 21 q12 -44 34.5 -86 q22.5 -42 61 -75 q38.5 -33 96 -53 q57.5 -20 138.5 -20 q77 0 140.5 24.5 q63.5 24.5 109 72 q45.5 47.5 70.5 116.5 q25 69 25 158 q0 72 -23.5 132.5 q-23.5 60.5 -68 104 q-44.5 43.5 -107 68 q-62.5 24.5 -142.5 24.5 q-102 0 -172 -32 q-70 -32 -123 -75 l-138 0 l46 766 l787 0 l0 -119 l-655 0 l-32 -517 q51 40 126.5 67.5 q75.5 27.5 181.5 27.5 q106 0 191.5 -32 q85.5 -32 145.5 -91 q60 -59 93 -140.5 q33 -81.5 33 -179.5 Z" /><glyph glyph-name="six" unicode="6" d="M1049 476 q0 -110 -30 -201.5 q-30 -91.5 -88 -157 q-58 -65.5 -142.5 -102 q-84.5 -36.5 -195.5 -36.5 q-122 0 -213 50 q-91 50 -150.5 142.5 q-59.5 92.5 -88.5 225 q-29 132.5 -29 297.5 q0 194 34.5 340 q34.5 146 99.5 244 q65 98 157 148 q92 50 208 50 q68 0 129 -14.5 q61 -14.5 112 -47 q51 -32.5 89.5 -86 q38.5 -53.5 62.5 -133.5 l-133 -29 q-33 103 -102 148.5 q-69 45.5 -158 45.5 q-81 0 -147.5 -39.5 q-66.5 -39.5 -113.5 -117.5 q-47 -78 -72.5 -195.5 q-25.5 -117.5 -25.5 -272.5 q50 101 144.5 154 q94.5 53 216.5 53 q98 0 178 -32.5 q80 -32.5 137.5 -93 q57.5 -60.5 89 -147 q31.5 -86.5 31.5 -193.5 ZM906 467 q0 83 -21 150 q-21 67 -61.5 114.5 q-40.5 47.5 -100.5 73.5 q-60 26 -137 26 q-55 0 -111 -16 q-56 -16 -101.5 -53 q-45.5 -37 -74 -96.5 q-28.5 -59.5 -28.5 -145.5 q0 -89 22 -166.5 q22 -77.5 64 -134 q42 -56.5 101 -89.5 q59 -33 133 -33 q148 0 231.5 97.5 q83.5 97.5 83.5 272.5 Z" /><glyph glyph-name="seven" unicode="7" d="M539 0 l-146 0 q0 175 39.5 347.5 q39.5 172.5 107.5 340 q68 167.5 158.5 328 q90.5 160.5 195.5 313.5 l-779 0 l0 125 l918 0 l0 -120 q-104 -154 -194 -315.5 q-90 -161.5 -157 -329.5 q-67 -168 -105 -340 q-38 -172 -38 -349 Z" /><glyph glyph-name="eight" unicode="8" d="M1049 404 q0 -92 -28.5 -170 q-28.5 -78 -86.5 -134.5 q-58 -56.5 -147.5 -88.5 q-89.5 -32 -213.5 -32 q-123 0 -213 32 q-90 32 -149 88.5 q-59 56.5 -87.5 134 q-28.5 77.5 -28.5 167.5 q0 80 24.5 142 q24.5 62 64.5 108 q40 46 92 73.5 q52 27.5 107 36.5 l0 4 q-61 14 -108 46.5 q-47 32.5 -79.5 77.5 q-32.5 45 -49.5 101 q-17 56 -17 117 q0 76 28.5 143 q28.5 67 84 117.5 q55.5 50.5 137.5 79.5 q82 29 190 29 q112 0 196 -30 q84 -30 138.5 -80 q54.5 -50 82 -117 q27.5 -67 27.5 -143 q0 -61 -17 -116.5 q-17 -55.5 -50 -100.5 q-33 -45 -80.5 -77 q-47.5 -32 -109.5 -46 l0 -4 q62 -10 115 -37.5 q53 -27.5 93 -73 q40 -45.5 62.5 -107.5 q22.5 -62 22.5 -140 ZM867 1099 q0 59 -16 108 q-16 49 -51.5 84.5 q-35.5 35.5 -92.5 55.5 q-57 20 -138 20 q-79 0 -135 -20 q-56 -20 -91.5 -55.5 q-35.5 -35.5 -51.5 -84.5 q-16 -49 -16 -108 q0 -46 12 -95 q12 -49 45 -90 q33 -41 90.5 -67.5 q57.5 -26.5 147.5 -26.5 q97 0 155.5 26.5 q58.5 26.5 89.5 67.5 q31 41 41.5 90 q10.5 49 10.5 95 ZM902 415 q0 57 -16.5 110 q-16.5 53 -55 94 q-38.5 41 -102.5 65.5 q-64 24.5 -159 24.5 q-87 0 -149.5 -24.5 q-62.5 -24.5 -102.5 -65.5 q-40 -41 -58.5 -94.5 q-18.5 -53.5 -18.5 -112.5 q0 -71 18.5 -130.5 q18.5 -59.5 59.5 -102 q41 -42.5 104.5 -66.5 q63.5 -24 152.5 -24 q91 0 153.5 23 q62.5 23 101 66.5 q38.5 43.5 55.5 103.5 q17 60 17 133 Z" /><glyph glyph-name="nine" unicode="9" d="M1042 759 q0 -195 -36 -341 q-36 -146 -103 -243.5 q-67 -97.5 -160.5 -146.5 q-93.5 -49 -209.5 -49 q-154 0 -253 66 q-99 66 -145 219 l136 26 q31 -102 96.5 -148.5 q65.5 -46.5 166.5 -46.5 q81 0 148 39 q67 39 115.5 116.5 q48.5 77.5 75 194 q26.5 116.5 27.5 271.5 q-22 -53 -60.5 -94.5 q-38.5 -41.5 -87.5 -70.5 q-49 -29 -105.5 -43.5 q-56.5 -14.5 -117.5 -14.5 q-98 0 -177 36 q-79 36 -134 101 q-55 65 -85 156 q-30 91 -30 201 q0 111 31.5 201 q31.5 90 91 154 q59.5 64 146.5 99 q87 35 197 35 q236 0 354.5 -180.5 q118.5 -180.5 118.5 -536.5 ZM884 928 q0 89 -21 167 q-21 78 -61.5 136 q-40.5 58 -100.5 92 q-60 34 -139 34 q-73 0 -131 -26 q-58 -26 -98.5 -73.5 q-40.5 -47.5 -62.5 -116.5 q-22 -69 -22 -154 q0 -81 19 -150 q19 -69 58 -121 q39 -52 97.5 -81 q58.5 -29 137.5 -29 q54 0 111.5 19.5 q57.5 19.5 104.5 59.5 q47 40 77.5 100 q30.5 60 30.5 143 Z" /><glyph glyph-name="A" unicode="a" d="M1152 0 l-172 450 l-651 0 l-170 -450 l-155 0 l565 1454 l175 0 l564 -1454 l-156 0 ZM746 1081 q-17 44 -33 88.5 q-16 44.5 -28.5 80 q-12.5 35.5 -19.5 58.5 q-8 23 -10 26 q-1 -5 -8.5 -29 q-7.5 -24 -20 -59.5 q-12.5 -35.5 -28 -78.5 q-15.5 -43 -32.5 -86 l-194 -511 l568 0 l-194 511 Z" /><glyph glyph-name="B" unicode="b" d="M1289 410 q0 -111 -42.5 -189 q-42.5 -78 -114.5 -127 q-72 -49 -167.5 -71.5 q-95.5 -22.5 -199.5 -22.5 l-566 0 l0 1454 l505 0 q118 0 210.5 -20 q92.5 -20 157 -62.5 q64.5 -42.5 99 -109 q34.5 -66.5 34.5 -159.5 q0 -61 -17.5 -115.5 q-17.5 -54.5 -51.5 -98.5 q-34 -44 -86.5 -75.5 q-52.5 -31.5 -121.5 -47.5 q87 -9 155 -40 q68 -31 113.5 -78 q45.5 -47 69 -107.5 q23.5 -60.5 23.5 -130.5 ZM1053 1089 q0 129 -88.5 187.5 q-88.5 58.5 -266.5 58.5 l-351 0 l0 -518 l352 0 q93 0 160 20 q67 20 109.5 55.5 q42.5 35.5 63.5 85.5 q21 50 21 111 ZM1138 419 q0 72 -30 126 q-30 54 -83.5 89.5 q-53.5 35.5 -128 52.5 q-74.5 17 -166.5 17 l-383 0 l0 -588 l395 0 q82 0 154.5 15.5 q72.5 15.5 126 51.5 q53.5 36 84.5 93.5 q31 57.5 31 142.5 Z" /><glyph glyph-name="C" unicode="c" d="M801 -21 q-170 0 -296 56.5 q-126 56.5 -209 157 q-83 100.5 -123.5 239 q-40.5 138.5 -40.5 302.5 q0 170 40.5 307.5 q40.5 137.5 123 233.5 q82.5 96 205.5 148.5 q123 52.5 290 52.5 q125 0 218 -29 q93 -29 159.5 -77 q66.5 -48 111.5 -107 q45 -59 74 -120 l-132 -50 q-24 49 -60.5 95.5 q-36.5 46.5 -89 82.5 q-52.5 36 -122 58 q-69.5 22 -158.5 22 q-133 0 -229 -44 q-96 -44 -158.5 -124.5 q-62.5 -80.5 -92 -195 q-29.5 -114.5 -29.5 -253.5 q0 -139 32.5 -254.5 q32.5 -115.5 97 -199.5 q64.5 -84 162 -130.5 q97.5 -46.5 226.5 -46.5 q93 0 167 27 q74 27 130.5 70.5 q56.5 43.5 96.5 97.5 q40 54 64 108 l125 -58 q-36 -69 -88 -135.5 q-52 -66.5 -123 -118 q-71 -51.5 -163.5 -83.5 q-92.5 -32 -208.5 -32 Z" /><glyph glyph-name="D" unicode="d" d="M1433 742 q0 -182 -54 -320 q-54 -138 -149.5 -232.5 q-95.5 -94.5 -224 -142 q-128.5 -47.5 -277.5 -47.5 l-529 0 l0 1454 l464 0 q169 0 310.5 -41.5 q141.5 -41.5 244 -128.5 q102.5 -87 159 -221.5 q56.5 -134.5 56.5 -320.5 ZM1282 742 q0 157 -45.5 268.5 q-45.5 111.5 -128 182.5 q-82.5 71 -197.5 103.5 q-115 32.5 -253 32.5 l-311 0 l0 -1204 l359 0 q125 0 230.5 39.5 q105.5 39.5 182.5 117 q77 77.5 120 193 q43 115.5 43 267.5 Z" /><glyph glyph-name="E" unicode="e" d="M199 0 l0 1454 l959 0 l0 -123 l-811 0 l0 -523 l748 0 l0 -120 l-748 0 l0 -565 l853 0 l0 -123 l-1001 0 Z" /><glyph glyph-name="F" unicode="f" d="M347 1329 l0 -589 l724 0 l0 -125 l-724 0 l0 -615 l-148 0 l0 1454 l900 0 l0 -125 l-752 0 Z" /><glyph glyph-name="G" unicode="g" d="M801 -21 q-170 0 -296 56.5 q-126 56.5 -209 157 q-83 100.5 -123.5 239 q-40.5 138.5 -40.5 302.5 q0 170 40.5 307.5 q40.5 137.5 123 233.5 q82.5 96 205.5 148.5 q123 52.5 290 52.5 q122 0 213.5 -28 q91.5 -28 159 -73.5 q67.5 -45.5 113 -104.5 q45.5 -59 76.5 -121 l-135 -47 q-25 50 -61.5 95 q-36.5 45 -88 79.5 q-51.5 34.5 -120 54.5 q-68.5 20 -157.5 20 q-133 0 -229 -44 q-96 -44 -158 -124.5 q-62 -80.5 -91.5 -195 q-29.5 -114.5 -29.5 -253.5 q0 -139 32.5 -254.5 q32.5 -115.5 97 -199.5 q64.5 -84 162 -130.5 q97.5 -46.5 226.5 -46.5 q83 0 152 16 q69 16 125 41.5 q56 25.5 98 56.5 q42 31 69 62 l0 314 l-437 0 l0 116 l576 0 l0 -487 q-44 -49 -102.5 -93.5 q-58.5 -44.5 -131.5 -77.5 q-73 -33 -160.5 -52.5 q-87.5 -19.5 -188.5 -19.5 Z" /><glyph glyph-name="H" unicode="h" d="M1245 0 l0 698 l-898 0 l0 -698 l-148 0 l0 1454 l148 0 l0 -630 l898 0 l0 630 l148 0 l0 -1454 l-148 0 Z" /><glyph glyph-name="I" unicode="i" d="M199 0 l0 1454 l148 0 l0 -1454 l-148 0 Z" /><glyph glyph-name="J" unicode="j" d="M472 -21 q-169 0 -271.5 86 q-102.5 86 -139.5 273 l144 27 q13 -70 38 -119.5 q25 -49.5 60 -81 q35 -31.5 79 -46.5 q44 -15 94 -15 q125 0 188.5 80.5 q63.5 80.5 63.5 231.5 l0 914 l-278 0 l0 125 l425 0 l0 -1033 q0 -101 -26 -182.5 q-26 -81.5 -76.5 -139.5 q-50.5 -58 -126 -89 q-75.5 -31 -174.5 -31 Z" /><glyph glyph-name="K" unicode="k" d="M1116 0 l-613 751 l-156 -160 l0 -591 l-148 0 l0 1454 l148 0 l0 -695 l682 695 l177 0 l-607 -609 l696 -845 l-179 0 Z" /><glyph glyph-name="L" unicode="l" d="M199 0 l0 1454 l148 0 l0 -1329 l713 0 l0 -125 l-861 0 Z" /><glyph glyph-name="M" unicode="m" d="M1549 0 l0 1020 q0 53 2 102 q1 49 2 87 q1 44 3 84 q-17 -44 -34 -88 q-14 -38 -32 -83 q-18 -45 -36 -84 l-441 -1038 l-133 0 l-450 1038 q-15 31 -32 75 q-17 43 -33 83 q-18 46 -37 97 q2 -48 4 -96 q1 -41 1.5 -88 q0.5 -47 0.5 -89 l0 -1020 l-135 0 l0 1454 l196 0 l478 -1090 q3 -5 14 -35 q11 -31 24 -66 q14 -41 33 -91 q23 54 42 96 q15 38 28 70 q13 31 15 36 l460 1080 l196 0 l0 -1454 l-136 0 Z" /><glyph glyph-name="N" unicode="n" d="M1277 0 l-949 1277 q2 -44 4 -90 q1 -40 1.5 -86 q0.5 -46 0.5 -87 l0 -1014 l-135 0 l0 1454 l169 0 l957 -1285 q-1 43 -4 89 q-3 40 -3.5 90.5 q-0.5 50.5 -0.5 102.5 l0 1003 l136 0 l0 -1454 l-176 0 Z" /><glyph glyph-name="O" unicode="o" d="M1503 734 q0 -170 -47 -309.5 q-47 -139.5 -135.5 -238 q-88.5 -98.5 -215.5 -153 q-127 -54.5 -288 -54.5 q-171 0 -299 56.5 q-128 56.5 -214 157 q-86 100.5 -129 239 q-43 138.5 -43 302.5 q0 170 45 307.5 q45 137.5 132 233.5 q87 96 214.5 148.5 q127.5 52.5 293.5 52.5 q165 0 293 -53 q128 -53 215.5 -150 q87.5 -97 132.5 -233.5 q45 -136.5 45 -305.5 ZM1349 734 q0 139 -34 253.5 q-34 114.5 -101.5 195 q-67.5 80.5 -167 124.5 q-99.5 44 -229.5 44 q-133 0 -233 -44 q-100 -44 -167 -124.5 q-67 -80.5 -100.5 -195 q-33.5 -114.5 -33.5 -253.5 q0 -139 34.5 -254.5 q34.5 -115.5 102.5 -199.5 q68 -84 167 -130.5 q99 -46.5 230 -46.5 q138 0 238.5 47 q100.5 47 165.5 131 q65 84 96.5 200 q31.5 116 31.5 253 Z" /><glyph glyph-name="P" unicode="p" d="M1218 1024 q0 -89 -30.5 -169.5 q-30.5 -80.5 -91.5 -141 q-61 -60.5 -153.5 -97 q-92.5 -36.5 -214.5 -36.5 l-381 0 l0 -580 l-148 0 l0 1454 l516 0 q125 0 219 -31 q94 -31 157.5 -87 q63.5 -56 95 -135.5 q31.5 -79.5 31.5 -176.5 ZM1067 1023 q0 148 -92.5 230 q-92.5 82 -276.5 82 l-351 0 l0 -637 l359 0 q93 0 161 24.5 q68 24.5 112.5 68.5 q44.5 44 66 103 q21.5 59 21.5 129 Z" /><glyph glyph-name="Q" unicode="q" d="M1503 734 q0 -156 -39.5 -286.5 q-39.5 -130.5 -113.5 -227 q-74 -96.5 -181 -156 q-107 -59.5 -243 -74.5 q43 -138 111.5 -201.5 q68.5 -63.5 180.5 -63.5 q26 0 58 4 q32 4 55 9 l0 -110 q-29 -9 -70 -14 q-41 -5 -82 -5 q-84 0 -147 24 q-63 24 -111.5 71.5 q-48.5 47.5 -84 117.5 q-35.5 70 -62.5 161 q-160 5 -280.5 63 q-120.5 58 -200.5 158 q-80 100 -120.5 235 q-40.5 135 -40.5 295 q0 170 45 307.5 q45 137.5 132 233.5 q87 96 214.5 148.5 q127.5 52.5 293.5 52.5 q165 0 293 -53 q128 -53 215.5 -150 q87.5 -97 132.5 -233.5 q45 -136.5 45 -305.5 ZM1349 734 q0 139 -34 253.5 q-34 114.5 -101.5 195 q-67.5 80.5 -167 124.5 q-99.5 44 -229.5 44 q-133 0 -233 -44 q-100 -44 -167 -124.5 q-67 -80.5 -100.5 -195 q-33.5 -114.5 -33.5 -253.5 q0 -139 34.5 -254.5 q34.5 -115.5 102.5 -199.5 q68 -84 167 -130.5 q99 -46.5 230 -46.5 q138 0 238.5 47 q100.5 47 165.5 131 q65 84 96.5 200 q31.5 116 31.5 253 Z" /><glyph glyph-name="R" unicode="r" d="M1091 0 l-396 623 l-348 0 l0 -623 l-148 0 l0 1454 l516 0 q118 0 211.5 -28 q93.5 -28 158 -80 q64.5 -52 99 -127.5 q34.5 -75.5 34.5 -172.5 q0 -68 -21.5 -134.5 q-21.5 -66.5 -66.5 -122 q-45 -55.5 -116 -94 q-71 -38.5 -170 -53.5 l423 -642 l-176 0 ZM1067 1045 q0 71 -25 125 q-25 54 -73 91 q-48 37 -115 55.5 q-67 18.5 -152 18.5 l-355 0 l0 -595 l362 0 q93 0 161 24 q68 24 111 64.5 q43 40.5 64.5 97 q21.5 56.5 21.5 119.5 Z" /><glyph glyph-name="S" unicode="s" d="M1236 393 q0 -89 -33.5 -164 q-33.5 -75 -101.5 -130.5 q-68 -55.5 -171 -87.5 q-103 -32 -242 -32 q-249 0 -390.5 93 q-141.5 93 -178.5 265 l145 32 q15 -59 44 -108 q29 -49 80 -85.5 q51 -36.5 125 -56.5 q74 -20 176 -20 q85 0 158.5 16.5 q73.5 16.5 127 51 q53.5 34.5 84 89.5 q30.5 55 30.5 131 q0 81 -39 132.5 q-39 51.5 -101.5 84.5 q-62.5 33 -140.5 54 q-78 21 -155 40 q-56 14 -112 29.5 q-56 15.5 -107.5 37 q-51.5 21.5 -96 49 q-44.5 27.5 -78 67 q-33.5 39.5 -52.5 92.5 q-19 53 -19 122 q0 101 38 173 q38 72 106 118 q68 46 159.5 68 q91.5 22 199.5 22 q123 0 210 -21 q87 -21 148.5 -61.5 q61.5 -40.5 99 -101 q37.5 -60.5 57.5 -139.5 l-147 -31 q-13 57 -40 101 q-27 44 -71.5 74 q-44.5 30 -107.5 46.5 q-63 16.5 -151 16.5 q-98 0 -166.5 -20 q-68.5 -20 -109.5 -55 q-41 -35 -60 -82 q-19 -47 -19 -101 q0 -70 31.5 -116 q31.5 -46 85 -77 q53.5 -31 124.5 -52 q71 -21 150 -40 q61 -16 122 -32 q61 -16 118 -37.5 q57 -21.5 106 -50.5 q49 -29 85.5 -71 q36.5 -42 58 -98.5 q21.5 -56.5 21.5 -134.5 Z" /><glyph glyph-name="T" unicode="t" d="M688 1329 l0 -1329 l-151 0 l0 1329 l-511 0 l0 125 l1172 0 l0 -125 l-510 0 Z" /><glyph glyph-name="U" unicode="u" d="M751 -21 q-118 0 -221 32 q-103 32 -178.5 98 q-75.5 66 -119.5 168 q-44 102 -44 243 l0 934 l149 0 l0 -920 q0 -113 32.5 -194.5 q32.5 -81.5 89.5 -133.5 q57 -52 133 -77.5 q76 -25.5 163 -25.5 q85 0 164 26.5 q79 26.5 140.5 80.5 q61.5 54 99 138 q37.5 84 37.5 199 l0 907 l148 0 l0 -913 q0 -144 -46.5 -249.5 q-46.5 -105.5 -126.5 -174.5 q-80 -69 -188 -103.5 q-108 -34.5 -232 -34.5 Z" /><glyph glyph-name="V" unicode="v" d="M719 0 l-160 0 l-546 1454 l160 0 l374 -1046 q17 -47 33 -96.5 q16 -49.5 29 -90.5 q14 -48 28 -95 q14 44 30 92 q14 41 30 91 q16 50 34 99 l371 1046 l160 0 l-543 -1454 Z" /><glyph glyph-name="W" unicode="w" d="M1576 0 l-170 0 l-307 998 q-12 40 -26 92.5 q-14 52.5 -26 101.5 q-14 57 -28 115 q-13 -58 -27 -115 q-12 -49 -25.5 -102 q-13.5 -53 -26.5 -92 l-304 -998 l-170 0 l-453 1454 l156 0 l294 -964 q21 -66 37.5 -129.5 q16.5 -63.5 29.5 -114.5 l29 -113 q16 70 33 137 q14 58 31.5 120.5 q17.5 62.5 31.5 110.5 l292 953 l146 0 l292 -953 q15 -46 32 -109 q17 -63 32 -121 q16 -68 34 -138 q2 0 11 36 q9 36 23 90 q14 54 31.5 117 q17.5 63 33.5 114 l288 964 l159 0 l-453 -1454 Z" /><glyph glyph-name="X" unicode="x" d="M1066 0 l-440 662 l-443 -662 l-162 0 l520 765 l-478 689 l163 0 l400 -596 l397 596 l163 0 l-467 -689 l509 -765 l-162 0 Z" /><glyph glyph-name="Y" unicode="y" d="M680 637 l0 -637 l-147 0 l0 637 l-523 817 l163 0 l433 -692 l434 692 l162 0 l-522 -817 Z" /><glyph glyph-name="Z" unicode="z" d="M1215 0 l-1139 0 l0 116 l930 1213 l-856 0 l0 125 l1029 0 l0 -115 l-929 -1214 l965 0 l0 -125 Z" /><glyph glyph-name="a" unicode="a" d="M1082 -10 q-51 0 -86.5 14.5 q-35.5 14.5 -57.5 43.5 q-22 29 -33 72.5 q-11 43.5 -14 98.5 l-3 0 q-60 -108 -164.5 -174 q-104.5 -66 -250.5 -66 q-82 0 -148.5 20 q-66.5 20 -113 59 q-46.5 39 -71 94.5 q-24.5 55.5 -24.5 126.5 q0 94 40.5 159 q40.5 65 109.5 105.5 q69 40.5 160 60 q91 19.5 193 20.5 l269 4 l0 57 q0 150 -73 215 q-73 65 -210 65 q-66 0 -117.5 -11 q-51.5 -11 -89 -35.5 q-37.5 -24.5 -60 -64 q-22.5 -39.5 -30.5 -95.5 l-145 15 q10 64 41.5 119 q31.5 55 85.5 94.5 q54 39.5 133 61.5 q79 22 183 22 q207 0 315 -96.5 q108 -96.5 108 -279.5 l0 -431 q0 -86 21.5 -130 q21.5 -44 82.5 -44 q15 0 34 4 q19 4 33 7 l0 -97 q-29 -8 -59 -11 q-30 -3 -59 -3 ZM888 529 l-240 -7 q-78 -1 -148 -12 q-70 -11 -123 -37.5 q-53 -26.5 -84 -72 q-31 -45.5 -31 -115.5 q0 -89 55 -139.5 q55 -50.5 174 -50.5 q92 0 165.5 32 q73.5 32 125 81.5 q51.5 49.5 79 111 q27.5 61.5 27.5 120.5 l0 89 Z" /><glyph glyph-name="b" unicode="b" d="M1166 530 q0 -117 -27.5 -218.5 q-27.5 -101.5 -85 -175 q-57.5 -73.5 -145.5 -115.5 q-88 -42 -206 -42 q-133 0 -234.5 57 q-101.5 57 -152.5 157 l-3 0 q0 -28 -1 -61 q-1 -33 -3 -61 q-2 -28 -3.5 -48 q-1.5 -20 -2.5 -23 l-133 0 q0 5 0.5 25.5 q0.5 20.5 1.5 51.5 q1 30 1.5 68.5 q0.5 38.5 0.5 78.5 l0 1275 l142 0 l0 -475 q0 -31 0 -61 q0 -30 -2 -56 q-1 -30 -2 -56 l4 0 q59 107 157 163.5 q98 56.5 250 56.5 q114 0 197 -41.5 q83 -41.5 138 -113.5 q55 -72 82 -171 q27 -99 27 -215 ZM1020 530 q0 101 -21 180 q-21 79 -65 135.5 q-44 56.5 -110.5 86 q-66.5 29.5 -155.5 29.5 q-71 0 -135.5 -22.5 q-64.5 -22.5 -113.5 -74 q-49 -51.5 -78.5 -135.5 q-29.5 -84 -29.5 -207 q0 -120 29 -203 q29 -83 77.5 -134 q48.5 -51 113 -73.5 q64.5 -22.5 135.5 -22.5 q172 0 263 114 q91 114 91 327 Z" /><glyph glyph-name="c" unicode="c" d="M1060 303 q-14 -64 -48 -123 q-34 -59 -90 -103.5 q-56 -44.5 -133.5 -71 q-77.5 -26.5 -178.5 -26.5 q-126 0 -220.5 40 q-94.5 40 -156 112 q-61.5 72 -92.5 171 q-31 99 -31 217 q0 129 34 231.5 q34 102.5 99 173.5 q65 71 158.5 109 q93.5 38 213.5 38 q98 0 175 -24.5 q77 -24.5 132 -67 q55 -42.5 89.5 -100 q34.5 -57.5 47.5 -123.5 l-143 -14 q-19 96 -94.5 159 q-75.5 63 -210.5 63 q-87 0 -154 -30 q-67 -30 -113 -86 q-46 -56 -69 -136 q-23 -80 -23 -182 q0 -217 95 -329 q95 -112 266 -112 q136 0 213 64.5 q77 64.5 99 174.5 l135 -25 Z" /><glyph glyph-name="d" unicode="d" d="M974 0 q0 3 -2 24 q-2 20 -4 49.5 q-2 29.5 -3 64 q-1 34.5 -1 63.5 l-2 0 q-59 -107 -156.5 -164.5 q-97.5 -57.5 -250.5 -57.5 q-114 0 -198 41.5 q-84 41.5 -138.5 114.5 q-54.5 73 -81.5 172 q-27 99 -27 215 q0 119 28 219 q28 100 86.5 173.5 q58.5 73.5 146 115 q87.5 41.5 204.5 41.5 q137 0 236.5 -57.5 q99.5 -57.5 150.5 -155.5 l2 0 q0 4 0 20.5 q0 16.5 -1 42.5 q-1 25 -1 56.5 q0 31.5 0 62.5 l0 459 l141 0 l0 -1275 q0 -40 0.5 -78.5 q0.5 -38.5 1.5 -68.5 q1 -31 1.5 -51.5 q0.5 -20.5 0.5 -25.5 l-133 0 ZM966 530 q0 120 -29 203.5 q-29 83.5 -77.5 134 q-48.5 50.5 -113 73.5 q-64.5 23 -135.5 23 q-172 0 -264 -114.5 q-92 -114.5 -92 -327.5 q0 -100 21.5 -180 q21.5 -80 65.5 -136 q44 -56 110.5 -86.5 q66.5 -30.5 156.5 -30.5 q71 0 135.5 23 q64.5 23 114 75.5 q49.5 52.5 78.5 136.5 q29 84 29 206 Z" /><glyph glyph-name="e" unicode="e" d="M255 497 q0 -87 21.5 -162.5 q21.5 -75.5 66.5 -130 q45 -54.5 114 -86.5 q69 -32 165 -32 q122 0 205.5 53 q83.5 53 116.5 142 l132 -23 q-17 -44 -50 -93.5 q-33 -49.5 -87 -90 q-54 -40.5 -132.5 -68 q-78.5 -27.5 -189.5 -27.5 q-116 0 -210 35.5 q-94 35.5 -159.5 106 q-65.5 70.5 -101.5 173.5 q-36 103 -36 239 q0 151 43.5 254 q43.5 103 114.5 166.5 q71 63.5 161.5 90.5 q90.5 27 183.5 27 q125 0 216 -40 q91 -40 149.5 -112.5 q58.5 -72.5 86.5 -171.5 q28 -99 28 -218 l0 -32 l-838 0 ZM613 964 q-67 0 -129.5 -19.5 q-62.5 -19.5 -111 -63 q-48.5 -43.5 -79.5 -112.5 q-31 -69 -35 -168 l695 0 q-6 84 -28.5 151 q-22.5 67 -64 114 q-41.5 47 -102.5 72.5 q-61 25.5 -145 25.5 Z" /><glyph glyph-name="f" unicode="f" d="M341 942 l0 -942 l-140 0 l0 942 l-155 0 l0 111 l155 0 l0 162 q0 60 10 111.5 q10 51.5 37 90 q27 38.5 75.5 60.5 q48.5 22 124.5 22 q29 0 59 -3 q30 -3 52 -7 l0 -109 q-17 3 -39.5 5.5 q-22.5 2.5 -42.5 2.5 q-42 0 -68.5 -13 q-26.5 -13 -42 -36 q-15.5 -23 -20.5 -57.5 q-5 -34.5 -5 -76.5 l0 -152 l218 0 l0 -111 l-218 0 Z" /><glyph glyph-name="g" unicode="g" d="M1103 828 l0 -798 q0 -243 -127 -371.5 q-127 -128.5 -367 -128.5 q-102 0 -179.5 19 q-77.5 19 -133.5 54 q-56 35 -91.5 83 q-35.5 48 -52.5 109 l140 23 q27 -82 107 -132 q80 -50 212 -50 q82 0 146.5 24 q64.5 24 110 71.5 q45.5 47.5 70 120.5 q24.5 73 24.5 171 q0 26 1 58 q1 31 1 60 l0 67 l-2 0 q-59 -109 -156.5 -165 q-97.5 -56 -250.5 -56 q-114 0 -198 40.5 q-84 40.5 -138.5 113 q-54.5 72.5 -81.5 171 q-27 98.5 -27 214.5 q0 119 28 218.5 q28 99.5 86.5 172 q58.5 72.5 146 113.5 q87.5 41 204.5 41 q137 0 236.5 -57.5 q99.5 -57.5 150.5 -155.5 l2 0 q0 28 1 61 q1 33 3 62 q2 29 4 49 q2 20 2 23 l133 0 q0 -6 -0.5 -26.5 q-0.5 -20.5 -1.5 -50.5 q-1 -30 -1.5 -68.5 q-0.5 -38.5 -0.5 -79.5 ZM966 533 q0 118 -29 200 q-29 82 -77.5 133.5 q-48.5 51.5 -113 74.5 q-64.5 23 -135.5 23 q-172 0 -264 -113.5 q-92 -113.5 -92 -324.5 q0 -99 21.5 -178.5 q21.5 -79.5 65.5 -135.5 q44 -56 110.5 -86.5 q66.5 -30.5 156.5 -30.5 q71 0 135.5 23 q64.5 23 114 74.5 q49.5 51.5 78.5 135.5 q29 84 29 205 Z" /><glyph glyph-name="h" unicode="h" d="M947 0 l0 633 q0 74 -16 134.5 q-16 60.5 -51.5 104 q-35.5 43.5 -92 67 q-56.5 23.5 -134.5 23.5 q-74 0 -136 -29 q-62 -29 -107 -79 q-45 -50 -70 -118 q-25 -68 -25 -146 l0 -590 l-142 0 l0 1500 l142 0 l0 -454 q0 -35 -1 -71 q-2 -37 -3 -67 q-1 -31 -2 -52 q-2 -21 -2 -25 l4 0 q66 122 161.5 181 q95.5 59 229.5 59 q102 0 174.5 -29 q72.5 -29 119 -81.5 q46.5 -52.5 68.5 -126.5 q22 -74 22 -166 l0 -668 l-139 0 Z" /><glyph glyph-name="i" unicode="i" d="M173 1338 l0 162 l142 0 l0 -162 l-142 0 ZM173 0 l0 1053 l142 0 l0 -1053 l-142 0 Z" /><glyph glyph-name="j" unicode="j" d="M173 1338 l0 162 l142 0 l0 -162 l-142 0 ZM89 -470 q-26 0 -55 2 q-29 2 -51 5 l0 106 q11 -3 34.5 -5 q23.5 -2 34.5 -2 q38 0 61.5 13.5 q23.5 13.5 37 39 q13.5 25.5 18 62 q4.5 36.5 4.5 84.5 l0 1218 l142 0 l0 -1225 q0 -61 -8.5 -116 q-8.5 -55 -33 -95 q-24.5 -40 -69 -63.5 q-44.5 -23.5 -115.5 -23.5 Z" /><glyph glyph-name="k" unicode="k" d="M890 0 l-429 522 l-146 -132 l0 -390 l-142 0 l0 1500 l142 0 l0 -966 l543 519 l171 0 l-470 -440 l500 -613 l-169 0 Z" /><glyph glyph-name="l" unicode="l" d="M173 0 l0 1500 l142 0 l0 -1500 l-142 0 Z" /><glyph glyph-name="m" unicode="m" d="M1642 0 l0 617 q0 74 -14 137.5 q-14 63.5 -46.5 110 q-32.5 46.5 -84.5 72 q-52 25.5 -130 25.5 q-68 0 -126.5 -28 q-58.5 -28 -101.5 -78 q-43 -50 -66.5 -117.5 q-23.5 -67.5 -23.5 -145.5 l0 -593 l-140 0 l0 617 q0 74 -14 137.5 q-14 63.5 -47 110 q-33 46.5 -85 72 q-52 25.5 -130 25.5 q-68 0 -126.5 -29 q-58.5 -29 -101.5 -79 q-43 -50 -66.5 -118 q-23.5 -68 -23.5 -146 l0 -590 l-142 0 l0 817 q0 34 -0.5 73.5 q-0.5 39.5 -1.5 73.5 q-1 34 -1.5 58.5 q-0.5 24.5 -0.5 30.5 l129 0 q0 -4 2 -32 q1 -29 2.5 -64.5 q1.5 -35.5 3 -71 q1.5 -35.5 1.5 -54.5 l4 0 q62 122 153 181 q91 59 220 59 q75 0 132 -19 q57 -19 99 -52.5 q42 -33.5 70 -80 q28 -46.5 42 -102.5 l4 0 q62 123 157.5 188.5 q95.5 65.5 227.5 65.5 q102 0 172 -33.5 q70 -33.5 113 -91 q43 -57.5 61.5 -134.5 q18.5 -77 18.5 -163 l0 -649 l-139 0 Z" /><glyph glyph-name="n" unicode="n" d="M947 0 l0 617 q0 74 -15.5 137.5 q-15.5 63.5 -50.5 110 q-35 46.5 -91 72 q-56 25.5 -137 25.5 q-74 0 -136 -29 q-62 -29 -107 -79 q-45 -50 -70 -118 q-25 -68 -25 -146 l0 -590 l-142 0 l0 817 q0 34 -0.5 73.5 q-0.5 39.5 -1.5 73.5 q-1 34 -1.5 58.5 q-0.5 24.5 -0.5 30.5 l129 0 q0 -4 2 -32 q1 -29 2.5 -64.5 q1.5 -35.5 3 -71 q1.5 -35.5 1.5 -54.5 l4 0 q66 122 161.5 181 q95.5 59 229.5 59 q107 0 180.5 -33.5 q73.5 -33.5 118.5 -91 q45 -57.5 65 -134.5 q20 -77 20 -163 l0 -649 l-139 0 Z" /><glyph glyph-name="o" unicode="o" d="M1146 526 q0 -120 -33 -220 q-33 -100 -99 -172.5 q-66 -72.5 -164 -113.5 q-98 -41 -228 -41 q-124 0 -220 40 q-96 40 -160.5 113 q-64.5 73 -98 173.5 q-33.5 100.5 -33.5 220.5 q0 118 31.5 217 q31.5 99 95.5 172 q64 73 161 114.5 q97 41.5 229 41.5 q139 0 238 -41 q99 -41 160.5 -113.5 q61.5 -72.5 91 -172 q29.5 -99.5 29.5 -218.5 ZM998 526 q0 225 -92.5 331.5 q-92.5 106.5 -273.5 106.5 q-182 0 -279.5 -109 q-97.5 -109 -97.5 -329 q0 -112 26.5 -194 q26.5 -82 75 -136 q48.5 -54 115 -80.5 q66.5 -26.5 147.5 -26.5 q181 0 280 106 q99 106 99 331 Z" /><glyph glyph-name="p" unicode="p" d="M1169 530 q0 -117 -28.5 -218.5 q-28.5 -101.5 -86.5 -175 q-58 -73.5 -146 -115.5 q-88 -42 -206 -42 q-133 0 -233.5 57 q-100.5 57 -153.5 157 l-4 0 q0 -1 1 -19 q0 -18 1 -46 q0 -29 1 -62 q1 -34 1 -66 l0 -470 l-142 0 l0 1298 q0 41 -0.5 79.5 q-0.5 38.5 -1.5 68.5 q-1 30 -1.5 50.5 q-0.5 20.5 -0.5 26.5 l133 0 q1 -3 2.5 -23.5 q1.5 -20.5 2.5 -50.5 q1 -31 3 -65 q1 -34 1 -63 l4 0 q60 107 157.5 164.5 q97.5 57.5 249.5 57.5 q115 0 199 -41 q84 -41 139 -114 q55 -73 82 -172.5 q27 -99.5 27 -215.5 ZM1023 530 q0 101 -22 181 q-22 80 -66 136 q-44 56 -111 86.5 q-67 30.5 -156 30.5 q-71 0 -135.5 -23.5 q-64.5 -23.5 -113.5 -75.5 q-49 -52 -78.5 -136 q-29.5 -84 -29.5 -207 q0 -120 29 -203 q29 -83 77.5 -134 q48.5 -51 113 -73.5 q64.5 -22.5 135.5 -22.5 q172 0 264.5 114 q92.5 114 92.5 327 Z" /><glyph glyph-name="q" unicode="q" d="M1103 828 l0 -1298 l-141 0 l0 488 q0 26 1 58 q1 31 1 59 l0 66 l-2 0 q-59 -107 -156.5 -164.5 q-97.5 -57.5 -250.5 -57.5 q-114 0 -198 41.5 q-84 41.5 -138.5 114.5 q-54.5 73 -81.5 172 q-27 99 -27 215 q0 119 28 219 q28 100 86.5 173.5 q58.5 73.5 146 115 q87.5 41.5 204.5 41.5 q137 0 236.5 -57.5 q99.5 -57.5 150.5 -155.5 l2 0 q0 28 1 61 q1 33 3 62 q2 29 4 49 q2 20 2 23 l133 0 q0 -6 -0.5 -26.5 q-0.5 -20.5 -1.5 -50.5 q-1 -30 -1.5 -68.5 q-0.5 -38.5 -0.5 -79.5 ZM966 530 q0 120 -29 203.5 q-29 83.5 -77.5 134 q-48.5 50.5 -113 73.5 q-64.5 23 -135.5 23 q-172 0 -264 -114.5 q-92 -114.5 -92 -327.5 q0 -100 21.5 -180 q21.5 -80 65.5 -136 q44 -56 110.5 -86.5 q66.5 -30.5 156.5 -30.5 q71 0 135.5 23 q64.5 23 114 75.5 q49.5 52.5 78.5 136.5 q29 84 29 206 Z" /><glyph glyph-name="r" unicode="r" d="M599 956 q-71 0 -124.5 -35.5 q-53.5 -35.5 -89 -94 q-35.5 -58.5 -53 -135 q-17.5 -76.5 -17.5 -158.5 l0 -533 l-142 0 l0 792 q0 35 -0.5 78 q-0.5 43 -1.5 82 q-1 39 -1.5 67 q-0.5 28 -0.5 34 l129 0 q0 -4 2 -34 q1 -31 3 -69 q1 -39 2.5 -78 q1.5 -39 1.5 -59 l4 0 q21 65 48 113.5 q27 48.5 65 80 q38 31.5 86.5 48 q48.5 16.5 111.5 16.5 q46 0 73 -11 l0 -116 q-18 7 -42.5 9.5 q-24.5 2.5 -53.5 2.5 Z" /><glyph glyph-name="s" unicode="s" d="M957 292 q0 -73 -29 -130.5 q-29 -57.5 -84.5 -98 q-55.5 -40.5 -136 -62.5 q-80.5 -22 -183.5 -22 q-92 0 -166.5 13.5 q-74.5 13.5 -131 44.5 q-56.5 31 -94.5 83.5 q-38 52.5 -56 129.5 l132 29 q14 -60 41.5 -98 q27.5 -38 68.5 -60 q41 -22 93 -29.5 q52 -7.5 113 -7.5 q64 0 118.5 11.5 q54.5 11.5 95 35.5 q40.5 24 63 60.5 q22.5 36.5 22.5 87.5 q0 55 -28.5 89 q-28.5 34 -76.5 57 q-48 23 -111 38.5 q-63 15.5 -131 30.5 q-66 16 -129.5 34.5 q-63.5 18.5 -113.5 50 q-50 31.5 -81 79.5 q-31 48 -31 120 q0 137 104 215 q104 78 304 78 q77 0 144 -15 q67 -15 120 -46.5 q53 -31.5 89 -81.5 q36 -50 49 -119 l-130 -17 q-9 50 -34 83.5 q-25 33.5 -62 53.5 q-37 20 -82 28.5 q-45 8.5 -94 8.5 q-137 0 -206 -47 q-69 -47 -69 -127 q0 -48 23.5 -79.5 q23.5 -31.5 64.5 -52.5 q41 -21 99 -36 q58 -15 128 -31 q70 -16 139.5 -35.5 q69.5 -19.5 125 -52.5 q55.5 -33 89.5 -84 q34 -51 34 -129 Z" /><glyph glyph-name="t" unicode="t" d="M404 -17 q-109 0 -165 60 q-56 60 -56 183 l0 716 l-139 0 l0 111 l142 0 l46 242 l93 0 l0 -242 l240 0 l0 -111 l-240 0 l0 -692 q0 -81 33.5 -119 q33.5 -38 99.5 -38 q27 0 59.5 4.5 q32.5 4.5 61.5 12.5 l0 -104 q-40 -10 -84 -16.5 q-44 -6.5 -91 -6.5 Z" /><glyph glyph-name="u" unicode="u" d="M956 0 q-1 4 -3 31.5 q-2 27.5 -4 63 q-2 35.5 -3.5 72 q-1.5 36.5 -1.5 55.5 l-4 0 q-65 -125 -160.5 -184 q-95.5 -59 -229.5 -59 q-108 0 -181.5 33.5 q-73.5 33.5 -118.5 92 q-45 58.5 -65 135.5 q-20 77 -20 164 l0 649 l139 0 l0 -620 q0 -73 15.5 -136.5 q15.5 -63.5 50.5 -109 q35 -45.5 91 -71.5 q56 -26 138 -26 q72 0 134 28.5 q62 28.5 107 79 q45 50.5 71 118.5 q26 68 26 147 l0 590 l140 0 l0 -817 q0 -35 0.5 -75 q0.5 -40 2.5 -74 q1 -34 1.5 -58.5 q0.5 -24.5 0.5 -28.5 l-126 0 Z" /><glyph glyph-name="v" unicode="v" d="M606 0 l-166 0 l-412 1053 l150 0 l273 -734 q8 -21 18.5 -49.5 q10.5 -28.5 21 -57.5 q10.5 -29 19.5 -56.5 q9 -27.5 14 -49.5 q6 20 15 47.5 q9 27.5 19.5 56.5 q10.5 29 21 57 q10.5 28 19.5 50 l282 736 l148 0 l-423 -1053 Z" /><glyph glyph-name="w" unicode="w" d="M1321 0 l-165 0 l-236 725 q-9 28 -19.5 63.5 q-10.5 35.5 -20.5 69.5 q-12 39 -22 79 q-12 -40 -23 -79 q-11 -34 -22 -70 q-11 -36 -21 -66 l-240 -722 l-162 0 l-354 1053 l142 0 l241 -752 q8 -25 17 -59 q9 -34 18 -64 q10 -35 19 -72 q12 40 22 76 q9 31 19 64 q10 33 16 55 l252 752 l155 0 l242 -752 q9 -29 19 -62 q9 -34 18 -64 q11 -34 20 -69 q10 36 20 71 q9 29 19 62.5 q10 33.5 18 61.5 l250 752 l139 0 l-361 -1053 Z" /><glyph glyph-name="x" unicode="x" d="M824 0 l-316 446 l-320 -446 l-152 0 l391 541 l-374 512 l159 0 l296 -423 l293 423 l159 0 l-373 -510 l397 -543 l-160 0 Z" /><glyph glyph-name="y" unicode="y" d="M560 -83 q-39 -99 -76.5 -172 q-37.5 -73 -78 -120.5 q-40.5 -47.5 -86.5 -71 q-46 -23.5 -100 -23.5 q-73 0 -122 9 l0 113 q18 -4 40.5 -6.5 q22.5 -2.5 40.5 -2.5 q80 0 138.5 79 q58.5 79 113.5 225 l18 53 l-420 1053 l150 0 l219 -590 q2 -2 11.5 -27.5 q9.5 -25.5 22.5 -60.5 q13 -36 29 -76 q15 -41 28 -77 q13 -36 22 -60 q9 -25 10 -29 q1 4 9.5 28.5 q8.5 24.5 21.5 59 q13 34.5 29 74.5 q15 40 29 75 q13 35 22 59.5 q9 24.5 10 28.5 l223 595 l149 0 l-453 -1136 Z" /><glyph glyph-name="z" unicode="z" d="M68 0 l0 112 l634 826 l-592 0 l0 115 l753 0 l0 -115 l-635 -823 l667 0 l0 -115 l-827 0 Z" /></font>
</defs>
</svg>
